<svg viewBox="0 0 40 40" xmlns="http://www.w3.org/2000/svg" xmlns:xlink="http://www.w3.org/1999/xlink" width="40.000000" height="40.000000" fill="none" customFrame="#000000">
	<defs>
		<linearGradient id="paint_linear_0" x1="20.1090012" x2="20.310257" y1="31.0893974" y2="34.4107399" gradientUnits="userSpaceOnUse">
			<stop stop-color="rgb(248,246,251)" offset="0" stop-opacity="1" />
			<stop stop-color="rgb(239,220,251)" offset="1" stop-opacity="1" />
		</linearGradient>
		<linearGradient id="paint_linear_1" x1="18.4462833" x2="22.0898094" y1="20.002985" y2="33.7543335" gradientUnits="userSpaceOnUse">
			<stop stop-color="rgb(248,246,251)" offset="0" stop-opacity="1" />
			<stop stop-color="rgb(239,220,251)" offset="1" stop-opacity="1" />
		</linearGradient>
		<linearGradient id="paint_linear_2" x1="21.0906239" x2="19.2014923" y1="33.9105377" y2="18.7978382" gradientUnits="userSpaceOnUse">
			<stop stop-color="rgb(248,246,251)" offset="0" stop-opacity="1" />
			<stop stop-color="rgb(239,220,251)" offset="1" stop-opacity="1" />
		</linearGradient>
		<linearGradient id="paint_linear_3" x1="30.2873993" x2="23.4148521" y1="32.399292" y2="15.915554" gradientUnits="userSpaceOnUse">
			<stop stop-color="rgb(239,220,251)" offset="0" stop-opacity="0" />
			<stop stop-color="rgb(233,214,247)" offset="0.0286999997" stop-opacity="0.0289999992" />
			<stop stop-color="rgb(197,181,222)" offset="0.220300004" stop-opacity="0.219999999" />
			<stop stop-color="rgb(170,155,203)" offset="0.413800001" stop-opacity="0.414000005" />
			<stop stop-color="rgb(150,136,189)" offset="0.607800007" stop-opacity="0.60799998" />
			<stop stop-color="rgb(138,125,181)" offset="0.8028" stop-opacity="0.802999973" />
			<stop stop-color="rgb(134,121,178)" offset="1" stop-opacity="1" />
		</linearGradient>
		<radialGradient id="paint_radial_0" cx="0" cy="0" r="1" gradientUnits="userSpaceOnUse" gradientTransform="matrix(11.3926,0,0,11.3926,23.6074,20.2699)">
			<stop stop-color="rgb(248,246,251)" offset="0" stop-opacity="1" />
			<stop stop-color="rgb(247,244,251)" offset="0.504700005" stop-opacity="1" />
			<stop stop-color="rgb(245,236,251)" offset="0.765699983" stop-opacity="1" />
			<stop stop-color="rgb(240,223,251)" offset="0.970499992" stop-opacity="1" />
			<stop stop-color="rgb(239,220,251)" offset="1" stop-opacity="1" />
		</radialGradient>
		<linearGradient id="paint_linear_4" x1="28.4177094" x2="25.2828846" y1="28.5168839" y2="17.5311356" gradientUnits="userSpaceOnUse">
			<stop stop-color="rgb(239,220,251)" offset="0" stop-opacity="0" />
			<stop stop-color="rgb(233,214,247)" offset="0.0286999997" stop-opacity="0.0289999992" />
			<stop stop-color="rgb(197,181,222)" offset="0.220300004" stop-opacity="0.219999999" />
			<stop stop-color="rgb(170,155,203)" offset="0.413800001" stop-opacity="0.414000005" />
			<stop stop-color="rgb(150,136,189)" offset="0.607800007" stop-opacity="0.60799998" />
			<stop stop-color="rgb(138,125,181)" offset="0.8028" stop-opacity="0.802999973" />
			<stop stop-color="rgb(134,121,178)" offset="1" stop-opacity="1" />
		</linearGradient>
		<linearGradient id="paint_linear_5" x1="24.8111267" x2="26.338501" y1="20.6175232" y2="26.3821583" gradientUnits="userSpaceOnUse">
			<stop stop-color="rgb(255,217,69)" offset="0" stop-opacity="1" />
			<stop stop-color="rgb(255,205,62)" offset="0.30430001" stop-opacity="1" />
			<stop stop-color="rgb(255,173,43)" offset="0.855799973" stop-opacity="1" />
			<stop stop-color="rgb(255,163,37)" offset="1" stop-opacity="1" />
		</linearGradient>
		<linearGradient id="paint_linear_6" x1="22.5023708" x2="29.3563232" y1="16.2237053" y2="19.4855919" gradientUnits="userSpaceOnUse">
			<stop stop-color="rgb(232,114,100)" offset="0" stop-opacity="0" />
			<stop stop-color="rgb(248,223,190)" offset="1" stop-opacity="1" />
		</linearGradient>
		<linearGradient id="paint_linear_7" x1="17.4599953" x2="22.3158379" y1="10.5373535" y2="11.6798649" gradientUnits="userSpaceOnUse">
			<stop stop-color="rgb(232,114,100)" offset="0" stop-opacity="0" />
			<stop stop-color="rgb(233,120,105)" offset="0.157499999" stop-opacity="0.158000007" />
			<stop stop-color="rgb(236,139,120)" offset="0.377799988" stop-opacity="0.377999991" />
			<stop stop-color="rgb(240,169,145)" offset="0.635299981" stop-opacity="0.63499999" />
			<stop stop-color="rgb(246,210,179)" offset="0.918799996" stop-opacity="0.91900003" />
			<stop stop-color="rgb(248,223,190)" offset="1" stop-opacity="1" />
		</linearGradient>
		<linearGradient id="paint_linear_8" x1="10.5760508" x2="14.288271" y1="16.0911751" y2="17.537838" gradientUnits="userSpaceOnUse">
			<stop stop-color="rgb(232,114,100)" offset="0" stop-opacity="0" />
			<stop stop-color="rgb(248,223,190)" offset="1" stop-opacity="1" />
		</linearGradient>
		<linearGradient id="paint_linear_9" x1="14.4954329" x2="11.4648418" y1="25.6188564" y2="31.9132767" gradientUnits="userSpaceOnUse">
			<stop stop-color="rgb(255,255,255)" offset="0" stop-opacity="0" />
			<stop stop-color="rgb(254,240,236)" offset="0.213799998" stop-opacity="0.214000002" />
			<stop stop-color="rgb(252,201,187)" offset="0.645200014" stop-opacity="0.644999981" />
			<stop stop-color="rgb(250,166,142)" offset="1" stop-opacity="1" />
		</linearGradient>
		<linearGradient id="paint_linear_10" x1="6.56980133" x2="11.8509016" y1="30.7562981" y2="23.2268677" gradientUnits="userSpaceOnUse">
			<stop stop-color="rgb(239,220,251)" offset="0" stop-opacity="0" />
			<stop stop-color="rgb(233,214,247)" offset="0.0286999997" stop-opacity="0.0289999992" />
			<stop stop-color="rgb(197,181,222)" offset="0.220300004" stop-opacity="0.219999999" />
			<stop stop-color="rgb(170,155,203)" offset="0.413800001" stop-opacity="0.414000005" />
			<stop stop-color="rgb(150,136,189)" offset="0.607800007" stop-opacity="0.60799998" />
			<stop stop-color="rgb(138,125,181)" offset="0.8028" stop-opacity="0.802999973" />
			<stop stop-color="rgb(134,121,178)" offset="1" stop-opacity="1" />
		</linearGradient>
		<linearGradient id="paint_linear_11" x1="14.4891605" x2="10.5777388" y1="23.1971378" y2="27.6728058" gradientUnits="userSpaceOnUse">
			<stop stop-color="rgb(250,166,142)" offset="0" stop-opacity="1" />
			<stop stop-color="rgb(250,163,143)" offset="0.352699995" stop-opacity="1" />
			<stop stop-color="rgb(252,152,147)" offset="0.651000023" stop-opacity="1" />
			<stop stop-color="rgb(254,135,154)" offset="0.92869997" stop-opacity="1" />
			<stop stop-color="rgb(255,129,156)" offset="1" stop-opacity="1" />
		</linearGradient>
		<linearGradient id="paint_linear_12" x1="13.8439655" x2="10.5243073" y1="24.1395607" y2="28.7728195" gradientUnits="userSpaceOnUse">
			<stop stop-color="rgb(255,255,255)" offset="0" stop-opacity="0" />
			<stop stop-color="rgb(254,240,236)" offset="0.213799998" stop-opacity="0.214000002" />
			<stop stop-color="rgb(252,201,187)" offset="0.645200014" stop-opacity="0.644999981" />
			<stop stop-color="rgb(250,166,142)" offset="1" stop-opacity="1" />
		</linearGradient>
		<linearGradient id="paint_linear_13" x1="14.7376041" x2="11.364377" y1="23.7597389" y2="29.3687897" gradientUnits="userSpaceOnUse">
			<stop stop-color="rgb(248,40,20)" offset="0" stop-opacity="0" />
			<stop stop-color="rgb(192,39,45)" offset="1" stop-opacity="1" />
		</linearGradient>
		<linearGradient id="paint_linear_14" x1="15.1419039" x2="13.1200905" y1="23.907938" y2="26.729763" gradientUnits="userSpaceOnUse">
			<stop stop-color="rgb(255,255,255)" offset="0" stop-opacity="0" />
			<stop stop-color="rgb(254,240,236)" offset="0.213799998" stop-opacity="0.214000002" />
			<stop stop-color="rgb(252,201,187)" offset="0.645200014" stop-opacity="0.644999981" />
			<stop stop-color="rgb(250,166,142)" offset="1" stop-opacity="1" />
		</linearGradient>
		<linearGradient id="paint_linear_15" x1="19.7479801" x2="22.0470161" y1="28.5415421" y2="32.0776711" gradientUnits="userSpaceOnUse">
			<stop stop-color="rgb(248,40,20)" offset="0" stop-opacity="0" />
			<stop stop-color="rgb(238,40,24)" offset="0.267699987" stop-opacity="0.268000007" />
			<stop stop-color="rgb(212,39,36)" offset="0.719099998" stop-opacity="0.718999982" />
			<stop stop-color="rgb(192,39,45)" offset="1" stop-opacity="1" />
		</linearGradient>
		<linearGradient id="paint_linear_16" x1="11.7444849" x2="13.6446114" y1="27.0662193" y2="23.2496738" gradientUnits="userSpaceOnUse">
			<stop stop-color="rgb(248,40,20)" offset="0" stop-opacity="0" />
			<stop stop-color="rgb(192,39,45)" offset="1" stop-opacity="1" />
		</linearGradient>
		<linearGradient id="paint_linear_17" x1="11.7425919" x2="7.30820942" y1="25.6037064" y2="30.7756233" gradientUnits="userSpaceOnUse">
			<stop stop-color="rgb(250,166,142)" offset="0" stop-opacity="1" />
			<stop stop-color="rgb(250,163,143)" offset="0.352699995" stop-opacity="1" />
			<stop stop-color="rgb(252,152,147)" offset="0.651000023" stop-opacity="1" />
			<stop stop-color="rgb(254,135,154)" offset="0.92869997" stop-opacity="1" />
			<stop stop-color="rgb(255,129,156)" offset="1" stop-opacity="1" />
		</linearGradient>
		<linearGradient id="paint_linear_18" x1="11.010128" x2="7.2430172" y1="26.6921082" y2="32.0434914" gradientUnits="userSpaceOnUse">
			<stop stop-color="rgb(255,255,255)" offset="0" stop-opacity="0" />
			<stop stop-color="rgb(254,240,236)" offset="0.213799998" stop-opacity="0.214000002" />
			<stop stop-color="rgb(252,201,187)" offset="0.645200014" stop-opacity="0.644999981" />
			<stop stop-color="rgb(250,166,142)" offset="1" stop-opacity="1" />
		</linearGradient>
		<linearGradient id="paint_linear_19" x1="12.020834" x2="8.18903255" y1="26.2512474" y2="32.7273674" gradientUnits="userSpaceOnUse">
			<stop stop-color="rgb(248,40,20)" offset="0" stop-opacity="0" />
			<stop stop-color="rgb(192,39,45)" offset="1" stop-opacity="1" />
		</linearGradient>
		<linearGradient id="paint_linear_20" x1="12.4762955" x2="10.1818838" y1="26.4206009" y2="29.6797733" gradientUnits="userSpaceOnUse">
			<stop stop-color="rgb(255,255,255)" offset="0" stop-opacity="0" />
			<stop stop-color="rgb(254,240,236)" offset="0.213799998" stop-opacity="0.214000002" />
			<stop stop-color="rgb(252,201,187)" offset="0.645200014" stop-opacity="0.644999981" />
			<stop stop-color="rgb(250,166,142)" offset="1" stop-opacity="1" />
		</linearGradient>
		<linearGradient id="paint_linear_21" x1="17.6552601" x2="20.2348614" y1="31.7441139" y2="35.8111801" gradientUnits="userSpaceOnUse">
			<stop stop-color="rgb(248,40,20)" offset="0" stop-opacity="0" />
			<stop stop-color="rgb(238,40,24)" offset="0.267699987" stop-opacity="0.268000007" />
			<stop stop-color="rgb(212,39,36)" offset="0.719099998" stop-opacity="0.718999982" />
			<stop stop-color="rgb(192,39,45)" offset="1" stop-opacity="1" />
		</linearGradient>
	</defs>
	<rect id="_Food" width="40.000000" height="40.000000" x="0.000000" y="0.000000" fill="rgb(255,255,255)" fill-opacity="0" />
	<g id="Group">
		<g id="Group">
			<path id="Vector" d="M19.9998 31.0546C15.0408 31.0546 10.4897 30.3924 6.92493 29.2885C7.43779 31.1178 8.40132 32.5012 9.5894 32.9439C12.2708 33.9432 15.9456 34.5596 19.9998 34.5596C24.0541 34.5596 27.7288 33.9433 30.4103 32.9439C31.5983 32.5012 32.5619 31.1178 33.0747 29.2885C29.5099 30.3924 24.9589 31.0546 19.9998 31.0546Z" fill="url(#paint_linear_0)" fill-rule="nonzero" />
			<path id="Vector" d="M40 25.867C40 35.1532 0 35.1532 0 25.867C0 16.5807 40 16.5807 40 25.867Z" fill="url(#paint_linear_1)" fill-rule="nonzero" />
			<path id="Vector" d="M37.2549 25.186C37.2549 31.8066 2.74512 31.8066 2.74512 25.186C2.74512 18.5654 37.2549 18.5654 37.2549 25.186Z" fill="url(#paint_linear_2)" fill-rule="nonzero" />
		</g>
		<path id="Vector" d="M39.8547 26.8073L35.4647 22.4173C34.3287 21.1879 32.0128 20.7206 29.3405 20.7206C27.493 20.7206 22.0138 20.5638 20.1516 20.5638C17.3834 20.5638 15.4531 21.4061 15.4531 22.8322C15.4531 23.2524 15.5695 23.6491 15.9152 23.9997C16.6176 24.7122 16.765 25.7017 16.5912 26.6601C16.5552 26.8591 16.5365 27.0629 16.5365 27.2702C16.5365 28.3107 17.0083 29.2604 17.7849 29.9847L20.6283 32.8282C29.7149 32.7398 38.6269 30.7329 39.8547 26.8073Z" fill="url(#paint_linear_3)" fill-rule="nonzero" />
		<g id="Group">
			<path id="Vector" d="M36.2109 24.0725C36.2109 22.1407 33.1349 20.2499 29.3404 20.2499C27.493 20.2499 22.0922 20.2499 20.2299 20.2499C17.4618 20.2499 15.2178 21.406 15.2178 22.8321C15.2178 23.2523 15.4126 23.649 15.7582 23.9996C16.4607 24.7121 16.7649 25.7016 16.5912 26.66C16.5551 26.8591 16.5364 27.0628 16.5364 27.2701C16.5364 29.5416 18.7804 31.3831 21.5485 31.3831C22.5138 31.3831 23.4152 31.1591 24.18 30.7711C24.962 30.3743 25.8669 30.2627 26.7382 30.4255C27.1509 30.5026 27.5804 30.5434 28.0216 30.5434C30.5431 30.5434 32.6856 29.2137 33.4636 27.363C33.6149 27.0031 33.8932 26.7049 34.253 26.5175C35.4641 25.887 36.2109 25.0241 36.2109 24.0725Z" fill="url(#paint_radial_0)" fill-rule="nonzero" />
			<path id="Vector" d="M34.984 26.0675L30.2546 21.3381C29.846 20.9098 25.0215 21.0579 22.964 21.0579C21.3527 21.8906 19.9615 22.551 19.9615 24.2236C19.9615 24.518 20.11 24.7789 20.3725 25.0065L25.7266 30.3606C26.0628 30.3414 26.403 30.363 26.7382 30.4256C27.1508 30.5027 27.5804 30.5435 28.0215 30.5435C30.543 30.5435 32.6855 29.2138 33.4635 27.3631C33.6148 27.0032 33.8932 26.705 34.2529 26.5176C34.5203 26.3784 34.7649 26.2279 34.984 26.0675Z" fill="url(#paint_linear_4)" fill-rule="nonzero" />
			<path id="Vector" d="M31.4669 24.2236C31.4669 26.8189 19.9615 26.8189 19.9615 24.2236C19.9615 21.6284 22.5371 19.5247 25.7143 19.5247C28.8914 19.5247 31.4669 21.6285 31.4669 24.2236Z" fill="url(#paint_linear_5)" fill-rule="nonzero" />
		</g>
		<g id="Group">
			<path id="Vector" d="M24.0671 12.2984C23.9728 12.0483 24.2319 11.8143 24.4547 11.9472C25.2418 12.417 26.3973 13.3835 26.3973 15.0101C26.3973 17.4769 23.5658 17.7094 23.5658 19.5367C23.5658 20.4744 23.6842 21.1219 23.7994 21.5302C23.8661 21.7664 23.6358 21.9745 23.4237 21.8691C22.7182 21.5189 21.6331 20.6643 21.6331 18.7207C21.6331 15.841 24.4411 15.8838 24.4411 14.3093C24.441 13.487 24.2498 12.7832 24.0671 12.2984Z" fill="url(#paint_linear_6)" fill-rule="nonzero" />
			<path id="Vector" d="M19.6318 5.59978C19.5703 5.48967 19.7349 5.38927 19.8452 5.46927C20.5931 6.01202 21.858 7.15947 21.858 8.71186C21.858 10.9159 19.4641 11.5398 19.1451 13.2585C18.8871 14.6487 19.4784 16.002 19.7496 16.5276C19.7966 16.6188 19.6883 16.7113 19.5762 16.6761C18.7513 16.4169 16.5322 15.4563 16.8636 12.6887C17.1846 10.0077 19.586 10.1301 20.0121 8.39547C20.3182 7.14998 19.941 6.15343 19.6318 5.59978Z" fill="url(#paint_linear_7)" fill-rule="nonzero" />
			<path id="Vector" d="M11.9234 12.8843C11.8393 12.6779 12.0155 12.4848 12.1869 12.5946C12.7926 12.9822 13.6982 13.7797 13.795 15.122C13.9419 17.1574 11.8778 17.3494 11.9866 18.8571C12.0425 19.6308 12.1679 20.1652 12.2768 20.5021C12.3397 20.697 12.1832 20.8687 12.0212 20.7818C11.4826 20.4929 10.6354 19.7877 10.5197 18.1839C10.3481 15.8076 12.4114 15.8429 12.3176 14.5436C12.2687 13.8651 12.0864 13.2844 11.9234 12.8843Z" fill="url(#paint_linear_8)" fill-rule="nonzero" />
		</g>
		<path id="Vector" d="M25.9248 28.3608C25.6935 28.2143 25.4752 28.0432 25.2738 27.8483L25.19 27.7672C24.1916 26.8011 22.7691 26.4114 21.4176 26.7337L21.3052 26.7605C19.8335 27.1114 18.2888 26.6167 17.2947 25.4763L17.2066 25.3752C16.3057 24.3418 14.9495 23.8246 13.5892 23.996L13.5881 23.9962C11.9957 24.1969 10.4321 23.4517 9.58508 22.0884L9.5541 22.0385C9.16649 21.4146 8.65151 20.8778 8.03684 20.4757C8.02461 20.4677 8.01237 20.4597 8.00029 20.4516C7.60602 20.1883 7.14539 20.0388 6.67127 20.0458C5.13629 20.0683 3.93762 20.2702 3.21692 20.6905C3.44735 21.4942 4.33731 22.3746 5.70578 23.2814C6.33817 23.7005 6.87692 24.249 7.27574 24.8989L7.32766 24.9835C8.2188 26.4354 9.86139 27.2319 11.5377 27.025L11.539 27.0249C12.9717 26.848 14.3979 27.4018 15.3463 28.503L15.4276 28.5974C16.4707 29.8087 18.0918 30.3341 19.6361 29.9614L19.7542 29.9329C21.1725 29.5906 22.6652 30.0047 23.713 31.0309L23.8008 31.1169C23.8028 31.1189 23.8049 31.121 23.807 31.123C23.9225 31.2356 24.0604 31.3107 24.2063 31.3502L26.0327 29.823C26.5063 29.4268 26.4462 28.6912 25.9248 28.3608Z" fill="url(#paint_linear_9)" fill-rule="nonzero" />
		<path id="Vector" d="M15.92 32.7005C7.4502 32.1523 0 29.8747 0 25.8668C0 24.8864 0.44549 24.0095 1.24314 23.2362C1.52235 23.5829 1.87137 23.946 2.28078 24.3233C2.77647 24.7805 3.17176 25.3358 3.42902 25.9594L3.46275 26.0409C4.03686 27.4331 5.36784 28.3664 6.87294 28.4307L6.87451 28.4315C8.16078 28.4864 9.33647 29.1766 10.0118 30.2731L10.0698 30.3664C10.8133 31.5727 12.1639 32.266 13.5773 32.168L13.6847 32.1602C14.48 32.1052 15.2588 32.3005 15.92 32.7005Z" fill="url(#paint_linear_10)" fill-rule="nonzero" />
		<g id="Group">
			<g id="Group">
				<path id="Vector" d="M19.1839 30.2487L19.2416 30.325C19.243 30.3268 19.2444 30.3286 19.2458 30.3304C19.4726 30.6284 19.8954 30.7062 20.2208 30.5195L22.7356 29.0763C23.1763 28.8234 23.2249 28.2257 22.8416 27.8901C22.6717 27.7412 22.5155 27.5744 22.3765 27.3908L22.3187 27.3145C21.6292 26.4046 20.5156 25.8988 19.3655 25.9733L19.2698 25.9795C18.0175 26.0605 16.8176 25.454 16.155 24.405L16.0962 24.312C15.4957 23.3613 14.4533 22.7625 13.3161 22.7149L13.3151 22.7149C11.9838 22.6591 10.8019 21.8493 10.2893 20.6417L10.2705 20.5976C10.0359 20.045 9.68549 19.5448 9.23538 19.1391C9.22643 19.131 9.21742 19.1229 9.20863 19.1147C8.92063 18.85 8.56314 18.6676 8.17373 18.6087C6.25271 18.318 4.91601 18.4674 4.55648 19.2357C4.2244 19.9452 4.84064 20.9363 6.09593 22.0688C6.53718 22.4669 6.88903 22.9504 7.11906 23.4924L7.14903 23.563C7.66291 24.7738 8.8455 25.5875 10.1802 25.6488L10.1812 25.6489C11.3219 25.7012 12.366 26.3037 12.9685 27.2574L13.0202 27.3391C13.6829 28.388 14.8827 28.9944 16.135 28.9135L16.2307 28.9073C17.3809 28.8329 18.4945 29.3388 19.1839 30.2487Z" fill="url(#paint_linear_11)" fill-rule="nonzero" />
				<path id="Vector" d="M22.8417 27.8901C22.6718 27.7412 22.5156 27.5744 22.3766 27.3909L22.3188 27.3146C21.6293 26.4047 20.5157 25.8989 19.3656 25.9733L19.2699 25.9795C18.0176 26.0605 16.8177 25.4541 16.1551 24.4051L16.0963 24.3121C15.4958 23.3614 14.4534 22.7626 13.3162 22.715L13.3152 22.7149C11.9839 22.659 10.802 21.8493 10.2894 20.6417L10.2707 20.5976C10.0361 20.045 9.68566 19.5448 9.23555 19.139C9.22661 19.131 9.21759 19.1229 9.2088 19.1147C8.9208 18.85 8.56331 18.6676 8.1739 18.6087C6.91335 18.4179 5.90441 18.4168 5.25806 18.6555C5.33994 19.3308 5.95194 20.1572 6.95249 21.07C7.41484 21.4918 7.78323 22.0045 8.02355 22.5795L8.05484 22.6544C8.59178 23.939 9.83155 24.8007 11.2324 24.8629L11.2334 24.863C12.4308 24.9161 13.5256 25.5538 14.1561 26.5652L14.2101 26.6517C14.9036 27.7642 16.1618 28.4056 17.4766 28.3171L17.5772 28.3103C18.7847 28.229 19.9526 28.7638 20.6745 29.7286L20.735 29.8095C20.7364 29.8114 20.7379 29.8133 20.7393 29.8152C20.8189 29.9211 20.9219 30.0001 21.0363 30.0516L22.7357 29.0763C23.1763 28.8234 23.225 28.2258 22.8417 27.8901Z" fill="url(#paint_linear_12)" fill-rule="nonzero" />
				<path id="Vector" d="M22.8416 27.89C22.6716 27.7412 22.5155 27.5743 22.3764 27.3908L22.3186 27.3145C21.6291 26.4046 20.5156 25.8988 19.3654 25.9732L19.2698 25.9794C18.0174 26.0605 16.8176 25.454 16.1549 24.405L16.0962 24.312C15.4956 23.3613 14.4532 22.7625 13.316 22.7149L13.3151 22.7148C11.9837 22.659 10.8018 21.8492 10.2893 20.6416L10.2705 20.5975C10.0359 20.0449 9.6855 19.5447 9.23538 19.1389C9.22644 19.1309 9.21742 19.1228 9.20864 19.1146C8.92064 18.8499 8.56315 18.6675 8.17374 18.6086C7.59617 18.5212 7.07185 18.4739 6.6106 18.4709C6.79765 19.0931 7.37483 19.8241 8.24832 20.621C8.71068 21.0428 9.07907 21.5555 9.31938 22.1305L9.35068 22.2054C9.88762 23.4899 11.1274 24.3517 12.5283 24.4139L12.5293 24.4139C13.7266 24.4671 14.8214 25.1048 15.4519 26.1161L15.506 26.2027C16.1995 27.3152 17.4577 27.9566 18.7725 27.8681L18.873 27.8613C20.0806 27.78 21.2485 28.3147 21.9704 29.2796L22.0309 29.3605C22.0323 29.3623 22.0338 29.3643 22.0352 29.3662C22.0552 29.3929 22.0768 29.4178 22.0996 29.4411L22.7355 29.0761C23.1762 28.8233 23.2249 28.2257 22.8416 27.89Z" fill="url(#paint_linear_13)" fill-rule="nonzero" />
				<path id="Vector" d="M22.8417 27.8901C22.6718 27.7412 22.5156 27.5744 22.3766 27.3908L22.3188 27.3145C21.6293 26.4046 20.5157 25.8988 19.3656 25.9733L19.2699 25.9795C18.0176 26.0605 16.8177 25.4541 16.1551 24.405L16.0963 24.312C15.4958 23.3613 14.4533 22.7625 13.3162 22.7149L13.3152 22.7148C11.9839 22.659 10.802 21.8493 10.2894 20.6417L10.2707 20.5976C10.0361 20.0449 9.68566 19.5447 9.23555 19.139C9.2266 19.1309 9.21758 19.1228 9.2088 19.1147C8.9208 18.85 8.56331 18.6675 8.1739 18.6086C7.97947 18.5792 7.79178 18.5549 7.60974 18.5347C7.89939 19.0089 8.36088 19.5287 8.96558 20.0803C9.42794 20.5021 9.79633 21.0148 10.0366 21.5898L10.0679 21.6647C10.6049 22.9493 11.8446 23.811 13.2455 23.8732L13.2465 23.8733C14.4439 23.9264 15.5387 24.5641 16.1692 25.5755L16.2232 25.6621C16.9167 26.7745 18.1749 27.4159 19.4897 27.3274L19.5903 27.3207C20.7978 27.2393 21.9657 27.7741 22.6876 28.7389L22.7481 28.8198C22.7495 28.8217 22.751 28.8236 22.7524 28.8255C22.7917 28.8778 22.8368 28.9234 22.8861 28.9625C23.1814 28.6737 23.1756 28.1825 22.8417 27.8901Z" fill="url(#paint_linear_14)" fill-rule="nonzero" />
				<path id="Vector" d="M22.8416 27.8901C22.6716 27.7413 22.5155 27.5744 22.3764 27.3909L22.3186 27.3146C22.1168 27.0483 21.8779 26.8178 21.6133 26.6252L16.4266 28.9007C17.5062 28.8923 18.5337 29.3905 19.184 30.2487L19.2418 30.325C19.2431 30.3268 19.2445 30.3286 19.2458 30.3304C19.4727 30.6284 19.8955 30.7062 20.2208 30.5195L22.7356 29.0762C23.1762 28.8234 23.2249 28.2258 22.8416 27.8901Z" fill="url(#paint_linear_15)" fill-rule="nonzero" />
			</g>
			<path id="Vector" d="M20.2209 30.5194L20.572 30.3179L20.5591 30.3004C19.785 29.255 18.5309 28.6769 17.2332 28.7673L17.1252 28.7749C16.1211 28.8448 15.1485 28.5144 14.4029 27.8848L13.387 26.6229C12.6964 25.6733 11.6064 25.0847 10.4225 25.0383L10.4215 25.0382C9.86925 25.0166 9.34046 24.8771 8.86376 24.6406C8.85419 24.6295 8.84501 24.618 8.83537 24.6069L6.40564 21.5722C6.23513 21.3436 6.04501 21.1295 5.83395 20.9354C5.82384 20.9262 5.8138 20.9169 5.80383 20.9076C5.48187 20.6055 5.08195 20.3978 4.64587 20.3303C4.89474 20.8497 5.39576 21.4373 6.09591 22.069C6.53717 22.4671 6.88909 22.9506 7.11905 23.4926L7.14901 23.5632C7.66289 24.774 8.84548 25.5877 10.1801 25.649L10.1811 25.6491C11.3218 25.7014 12.366 26.3039 12.9685 27.2576L13.0201 27.3393C13.6827 28.3882 14.8826 28.9946 16.1349 28.9137L16.2307 28.9075C17.3808 28.8331 18.4944 29.3389 19.1839 30.2489L19.2417 30.3251C19.2431 30.327 19.2445 30.3288 19.2459 30.3306C19.4727 30.6284 19.8955 30.7062 20.2209 30.5194Z" fill="url(#paint_linear_16)" fill-rule="nonzero" />
			<g id="Group">
				<path id="Vector" d="M17.0108 33.6935L17.0757 33.7811C17.0772 33.7832 17.0787 33.7853 17.0803 33.7873C17.3349 34.1297 17.8116 34.2176 18.1794 34.0012L21.0222 32.3283C21.5203 32.0351 21.5776 31.3465 21.1467 30.9613C20.9555 30.7905 20.7801 30.5989 20.624 30.3881L20.559 30.3004C19.785 29.255 18.5309 28.6769 17.2332 28.7673L17.1252 28.7749C15.7122 28.8733 14.3613 28.1796 13.618 26.9738L13.5521 26.8669C12.8786 25.7742 11.7052 25.0885 10.4225 25.0383L10.4215 25.0382C8.91983 24.9794 7.59003 24.0514 7.01669 22.6622L6.99575 22.6115C6.7334 21.9758 6.34014 21.401 5.83403 20.9354C5.82399 20.9262 5.81387 20.9169 5.80391 20.9076C5.48014 20.6038 5.07756 20.3951 4.63858 20.3288C2.47277 20.0019 0.964301 20.1795 0.555516 21.066C0.178026 21.8847 0.869085 23.024 2.28046 24.3236C2.77654 24.7804 3.17152 25.336 3.42877 25.9594L3.46226 26.0406C4.03693 27.4334 5.36767 28.3661 6.87293 28.4311L6.87403 28.4312C8.16061 28.4868 9.33591 29.1766 10.0117 30.2728L10.0696 30.3667C10.8129 31.5724 12.1638 32.2661 13.5767 32.1677L13.6848 32.1602C14.9827 32.0698 16.2368 32.648 17.0108 33.6935Z" fill="url(#paint_linear_17)" fill-rule="nonzero" />
				<path id="Vector" d="M21.1465 30.9613C20.9554 30.7905 20.7799 30.5989 20.6238 30.3881L20.5589 30.3004C19.7848 29.255 18.5307 28.6769 17.2331 28.7673L17.1251 28.7749C15.7121 28.8733 14.3612 28.1796 13.6179 26.9738L13.552 26.8669C12.8784 25.7741 11.705 25.0885 10.4223 25.0382L10.4213 25.0381C8.91967 24.9793 7.58986 24.0513 7.01653 22.6621L6.99559 22.6114C6.73324 21.9757 6.33998 21.4009 5.83386 20.9353C5.82374 20.9261 5.81371 20.9168 5.80374 20.9075C5.47998 20.6037 5.07739 20.395 4.63841 20.3287C3.21723 20.1141 2.07904 20.1169 1.349 20.3946C1.43857 21.1723 2.12555 22.1218 3.25049 23.1693C3.77033 23.6534 4.18382 24.2425 4.45253 24.9039L4.48751 24.9901C5.0879 26.4678 6.48288 27.4554 8.06296 27.5213L8.06414 27.5214C9.41457 27.5778 10.647 28.3078 11.3541 29.4705L11.4146 29.5701C12.1924 30.8488 13.6091 31.5826 15.0925 31.4753L15.206 31.467C16.5685 31.3684 17.8838 31.9796 18.6942 33.0883L18.7621 33.1811C18.7637 33.1833 18.7653 33.1855 18.767 33.1877C18.8563 33.3095 18.9722 33.3999 19.1009 33.4588L21.022 32.3283C21.5201 32.0351 21.5775 31.3464 21.1465 30.9613Z" fill="url(#paint_linear_18)" fill-rule="nonzero" />
				<path id="Vector" d="M21.1467 30.9612C20.9556 30.7905 20.7801 30.5989 20.624 30.3881L20.5591 30.3004C19.7851 29.255 18.5309 28.6768 17.2333 28.7673L17.1253 28.7748C15.7123 28.8732 14.3614 28.1795 13.6181 26.9737L13.5522 26.8668C12.8786 25.7741 11.7052 25.0884 10.4226 25.0382L10.4215 25.0381C8.91989 24.9793 7.59009 24.0513 7.01676 22.6621L6.99581 22.6113C6.73346 21.9757 6.34021 21.4008 5.83409 20.9353C5.82397 20.926 5.81393 20.9167 5.80397 20.9074C5.48021 20.6037 5.07762 20.3949 4.63864 20.3287C3.98743 20.2304 3.39629 20.1781 2.87598 20.1765C3.08437 20.8925 3.73245 21.7323 4.71456 22.6467C5.23441 23.1308 5.64789 23.7199 5.9166 24.3814L5.95158 24.4675C6.55197 25.9452 7.94695 26.9328 9.52703 26.9987L9.5282 26.9988C10.8786 27.0552 12.111 27.7852 12.8182 28.9479L12.8787 29.0474C13.6564 30.3262 15.0731 31.06 16.5566 30.9526L16.6701 30.9444C18.0325 30.8457 19.3479 31.457 20.1582 32.5656L20.2261 32.6585C20.2278 32.6607 20.2294 32.6629 20.231 32.6651C20.2535 32.6958 20.2778 32.7244 20.3034 32.7511L21.0222 32.3281C21.5203 32.035 21.5777 31.3463 21.1467 30.9612Z" fill="url(#paint_linear_19)" fill-rule="nonzero" />
				<path id="Vector" d="M21.1466 30.9613C20.9554 30.7905 20.78 30.5989 20.6239 30.3881L20.559 30.3004C19.7849 29.255 18.5308 28.6769 17.2332 28.7673L17.1252 28.7748C15.7121 28.8733 14.3612 28.1795 13.6179 26.9737L13.5521 26.8668C12.8785 25.7741 11.7051 25.0885 10.4224 25.0382L10.4214 25.0381C8.91974 24.9793 7.58993 24.0513 7.0166 22.6621L6.99566 22.6114C6.7333 21.9757 6.34005 21.4009 5.83393 20.9353C5.82381 20.926 5.81377 20.9168 5.80381 20.9074C5.48005 20.6037 5.07746 20.395 4.63848 20.3287C4.41926 20.2956 4.20765 20.2683 4.00232 20.2458C4.3271 20.791 4.84554 21.3879 5.52546 22.0209C6.0453 22.505 6.45879 23.0941 6.7275 23.7556L6.76248 23.8417C7.36287 25.3194 8.75786 26.3071 10.3379 26.3729L10.3391 26.373C11.6895 26.4294 12.9219 27.1595 13.6291 28.3221L13.6896 28.4216C14.4674 29.7004 15.8841 30.4342 17.3675 30.3268L17.481 30.3186C18.8434 30.2199 20.1588 30.8312 20.9692 31.9399L21.0371 32.0327C21.0387 32.0349 21.0403 32.0371 21.042 32.0393C21.0861 32.0994 21.1368 32.1518 21.1921 32.1966C21.5267 31.8626 21.5221 31.2968 21.1466 30.9613Z" fill="url(#paint_linear_20)" fill-rule="nonzero" />
				<path id="Vector" d="M21.1466 30.9612C20.9555 30.7905 20.78 30.5989 20.624 30.388L20.559 30.3003C20.3325 29.9944 20.064 29.7298 19.7662 29.509L13.906 32.1518C15.1238 32.1377 16.2808 32.7074 17.0109 33.6935L17.0757 33.7811C17.0773 33.7832 17.0788 33.7852 17.0804 33.7873C17.335 34.1298 17.8116 34.2176 18.1794 34.0012L21.0222 32.3283C21.5203 32.035 21.5776 31.3463 21.1466 30.9612Z" fill="url(#paint_linear_21)" fill-rule="nonzero" />
			</g>
		</g>
	</g>
</svg>
