<svg viewBox="0 0 16 16" xmlns="http://www.w3.org/2000/svg" xmlns:xlink="http://www.w3.org/1999/xlink" width="16.000000" height="16.000000" fill="none">
	<rect id="gift" width="16.000000" height="16.000000" x="0.000000" y="0.000000" fill="rgb(255,255,255)" fill-opacity="0" />
	<path id="Vector" d="M13.3333 8L13.3333 14.6667L2.66663 14.6667L2.66663 8" fill-rule="nonzero" stroke="rgb(195,71,83)" stroke-width="1.5" />
	<path id="Vector" d="M14.6667 4.66669L14.6667 8.00002L1.33337 8.00002L1.33337 4.66669L14.6667 4.66669Z" stroke="rgb(195,71,83)" stroke-width="1.5" />
	<path id="Vector" d="M8 4.66669L8 4.66669Z" stroke="rgb(195,71,83)" stroke-width="1.5" />
	<path id="Vector" d="M5.00004 4.66665C4.55801 4.66665 4.13409 4.49105 3.82153 4.17849C3.50897 3.86593 3.33337 3.44201 3.33337 2.99998C3.33337 2.55795 3.50897 2.13403 3.82153 1.82147C4.13409 1.50891 4.55801 1.33331 5.00004 1.33331C7.33337 1.33331 8.00004 4.66665 8.00004 4.66665L5.00004 4.66665Z" fill-rule="nonzero" stroke="rgb(195,71,83)" stroke-width="1.5" />
	<path id="Vector" d="M11 4.66665C11.442 4.66665 11.866 4.49105 12.1785 4.17849C12.4911 3.86593 12.6667 3.44201 12.6667 2.99998C12.6667 2.55795 12.4911 2.13403 12.1785 1.82147C11.866 1.50891 11.442 1.33331 11 1.33331C8.66667 1.33331 8 4.66665 8 4.66665L11 4.66665Z" fill-rule="nonzero" stroke="rgb(195,71,83)" stroke-width="1.5" />
</svg>
