<svg viewBox="0 0 16 16" xmlns="http://www.w3.org/2000/svg" xmlns:xlink="http://www.w3.org/1999/xlink" width="16.000000" height="16.000000" fill="none">
	<rect id="map-pin" width="16.000000" height="16.000000" x="0.000000" y="0.000000" fill="rgb(255,255,255)" fill-opacity="0" />
	<path id="Vector" d="M8 15.3334C8 15.3334 2 11.3334 2 6.66669C2 5.07539 2.63214 3.54926 3.75736 2.42405C4.88258 1.29883 6.4087 0.666687 8 0.666687C9.5913 0.666687 11.1174 1.29883 12.2426 2.42405C13.3679 3.54926 14 5.07539 14 6.66669C14 11.3334 8 15.3334 8 15.3334Z" fill-rule="nonzero" stroke="rgb(52.0625,52.0625,52.0625)" stroke-width="1.5" />
	<path id="Vector" d="M8 8.66666C6.89543 8.66666 6 7.77123 6 6.66666C6 5.56209 6.89543 4.66666 8 4.66666C9.10457 4.66666 10 5.56209 10 6.66666C10 7.77123 9.10457 8.66666 8 8.66666Z" stroke="rgb(52.0625,52.0625,52.0625)" stroke-width="1.5" />
</svg>
