<svg width="28" height="41" viewBox="0 0 28 41" fill="none" xmlns="http://www.w3.org/2000/svg">
<path d="M25.76 22.36H25.77C25.77 22.36 22 27.89 18.83 32C16.09 35.55 15.29 38.59 15.06 40.06C14.97 40.6 14.53 41 14 41C13.47 41 13.03 40.6 12.94 40.06C12.71 38.59 11.91 35.55 9.17002 32C8.75002 31.45 8.32001 30.88 7.89001 30.3L18.24 18L26.57 8.12C27.49 10.05 28 12.21 28 14.5C28 17.4 27.17 20.09 25.76 22.36Z" fill="#BF360C"/>
<path d="M18.2399 18L7.88994 30.3C5.06994 26.52 2.22994 22.36 2.22994 22.36H2.23994C1.93994 21.88 1.66994 21.39 1.43994 20.88L9.75994 11C8.96994 11.95 8.49994 13.17 8.49994 14.5C8.49994 17.54 10.9599 20 13.9999 20C15.7099 20 17.2399 19.22 18.2399 18Z" fill="#BF360C"/>
<path d="M18.4 0.74L9.83002 10.92L3.27002 5.2C5.83002 2.02 9.69002 0 14 0C15.54 0 17.02 0.26 18.4 0.74Z" fill="#BF360C"/>
<path d="M9.83 10.92L9.76 11L1.44 20.88C0.52 18.95 0 16.79 0 14.5C0 10.96 1.23 7.71001 3.27 5.20001L9.83 10.92Z" fill="#BF360C"/>
<path d="M18.24 18C19.03 17.05 19.5 15.83 19.5 14.5C19.5 11.46 17.04 8.99999 14 8.99999C12.29 8.99999 10.76 9.77999 9.76001 11L18.4 0.73999C21.99 1.95999 24.93 4.64999 26.57 8.11999L18.24 18Z" fill="#BF360C"/>
</svg>
