<svg viewBox="0 0 40.0002 40" xmlns="http://www.w3.org/2000/svg" xmlns:xlink="http://www.w3.org/1999/xlink" width="40.000183" height="40.000000" fill="none" customFrame="#000000">
	<defs>
		<linearGradient id="paint_linear_79" x1="20.0743408" x2="20.231205" y1="34.7207489" y2="37.3089714" gradientUnits="userSpaceOnUse">
			<stop stop-color="rgb(248,246,251)" offset="0" stop-opacity="1" />
			<stop stop-color="rgb(239,220,251)" offset="1" stop-opacity="1" />
		</linearGradient>
		<linearGradient id="paint_linear_80" x1="18.686039" x2="21.7673702" y1="26.0059643" y2="37.6353798" gradientUnits="userSpaceOnUse">
			<stop stop-color="rgb(248,246,251)" offset="0" stop-opacity="1" />
			<stop stop-color="rgb(239,220,251)" offset="1" stop-opacity="1" />
		</linearGradient>
		<linearGradient id="paint_linear_81" x1="20.8603344" x2="19.3701401" y1="37.3444633" y2="25.4229164" gradientUnits="userSpaceOnUse">
			<stop stop-color="rgb(248,246,251)" offset="0" stop-opacity="1" />
			<stop stop-color="rgb(239,220,251)" offset="1" stop-opacity="1" />
		</linearGradient>
		<linearGradient id="paint_linear_82" x1="22.5220757" x2="20.1691113" y1="34.7621841" y2="17.0366974" gradientUnits="userSpaceOnUse">
			<stop stop-color="rgb(239,220,251)" offset="0" stop-opacity="0" />
			<stop stop-color="rgb(233,214,247)" offset="0.0286999997" stop-opacity="0.0289999992" />
			<stop stop-color="rgb(197,181,222)" offset="0.220300004" stop-opacity="0.219999999" />
			<stop stop-color="rgb(170,155,203)" offset="0.413800001" stop-opacity="0.414000005" />
			<stop stop-color="rgb(150,136,189)" offset="0.607800007" stop-opacity="0.60799998" />
			<stop stop-color="rgb(138,125,181)" offset="0.8028" stop-opacity="0.802999973" />
			<stop stop-color="rgb(134,121,178)" offset="1" stop-opacity="1" />
		</linearGradient>
		<linearGradient id="paint_linear_83" x1="18.9365005" x2="21.4346218" y1="25.0812454" y2="34.5096207" gradientUnits="userSpaceOnUse">
			<stop stop-color="rgb(255,222,207)" offset="0" stop-opacity="1" />
			<stop stop-color="rgb(253,196,176)" offset="0.379099995" stop-opacity="1" />
			<stop stop-color="rgb(251,174,151)" offset="0.765500009" stop-opacity="1" />
			<stop stop-color="rgb(250,166,142)" offset="1" stop-opacity="1" />
		</linearGradient>
		<linearGradient id="paint_linear_84" x1="31.5788956" x2="29.975956" y1="28.0791836" y2="25.5777855" gradientUnits="userSpaceOnUse">
			<stop stop-color="rgb(248,40,20)" offset="0" stop-opacity="0" />
			<stop stop-color="rgb(241,40,23)" offset="0.245399997" stop-opacity="0.245000005" />
			<stop stop-color="rgb(221,40,32)" offset="0.605199993" stop-opacity="0.605000019" />
			<stop stop-color="rgb(192,39,45)" offset="1" stop-opacity="1" />
		</linearGradient>
		<linearGradient id="paint_linear_85" x1="30.4749527" x2="29.209549" y1="29.6202965" y2="27.6455631" gradientUnits="userSpaceOnUse">
			<stop stop-color="rgb(248,40,20)" offset="0" stop-opacity="0" />
			<stop stop-color="rgb(241,40,23)" offset="0.245399997" stop-opacity="0.245000005" />
			<stop stop-color="rgb(221,40,32)" offset="0.605199993" stop-opacity="0.605000019" />
			<stop stop-color="rgb(192,39,45)" offset="1" stop-opacity="1" />
		</linearGradient>
		<linearGradient id="paint_linear_86" x1="32.1588936" x2="31.3960075" y1="29.8059826" y2="28.6154518" gradientUnits="userSpaceOnUse">
			<stop stop-color="rgb(248,40,20)" offset="0" stop-opacity="0" />
			<stop stop-color="rgb(241,40,23)" offset="0.245399997" stop-opacity="0.245000005" />
			<stop stop-color="rgb(221,40,32)" offset="0.605199993" stop-opacity="0.605000019" />
			<stop stop-color="rgb(192,39,45)" offset="1" stop-opacity="1" />
		</linearGradient>
		<linearGradient id="paint_linear_87" x1="33.6675148" x2="34.2790337" y1="28.4780846" y2="26.2771969" gradientUnits="userSpaceOnUse">
			<stop stop-color="rgb(248,40,20)" offset="0" stop-opacity="0" />
			<stop stop-color="rgb(241,40,23)" offset="0.245399997" stop-opacity="0.245000005" />
			<stop stop-color="rgb(221,40,32)" offset="0.605199993" stop-opacity="0.605000019" />
			<stop stop-color="rgb(192,39,45)" offset="1" stop-opacity="1" />
		</linearGradient>
		<linearGradient id="paint_linear_88" x1="32.4548492" x2="32.9376335" y1="28.4957085" y2="26.7582798" gradientUnits="userSpaceOnUse">
			<stop stop-color="rgb(248,40,20)" offset="0" stop-opacity="0" />
			<stop stop-color="rgb(241,40,23)" offset="0.245399997" stop-opacity="0.245000005" />
			<stop stop-color="rgb(221,40,32)" offset="0.605199993" stop-opacity="0.605000019" />
			<stop stop-color="rgb(192,39,45)" offset="1" stop-opacity="1" />
		</linearGradient>
		<linearGradient id="paint_linear_89" x1="33.2299919" x2="33.521019" y1="29.7425556" y2="28.6950245" gradientUnits="userSpaceOnUse">
			<stop stop-color="rgb(248,40,20)" offset="0" stop-opacity="0" />
			<stop stop-color="rgb(241,40,23)" offset="0.245399997" stop-opacity="0.245000005" />
			<stop stop-color="rgb(221,40,32)" offset="0.605199993" stop-opacity="0.605000019" />
			<stop stop-color="rgb(192,39,45)" offset="1" stop-opacity="1" />
		</linearGradient>
		<linearGradient id="paint_linear_90" x1="20.0001926" x2="20.0001926" y1="31.6863823" y2="35.0859871" gradientUnits="userSpaceOnUse">
			<stop stop-color="rgb(248,40,20)" offset="0" stop-opacity="0" />
			<stop stop-color="rgb(243,40,22)" offset="0.245800003" stop-opacity="0.246000007" />
			<stop stop-color="rgb(227,40,29)" offset="0.550599992" stop-opacity="0.550999999" />
			<stop stop-color="rgb(202,39,40)" offset="0.885299981" stop-opacity="0.88499999" />
			<stop stop-color="rgb(192,39,45)" offset="1" stop-opacity="1" />
		</linearGradient>
		<linearGradient id="paint_linear_91" x1="18.9365063" x2="21.4346161" y1="22.1332455" y2="31.5615463" gradientUnits="userSpaceOnUse">
			<stop stop-color="rgb(255,222,207)" offset="0" stop-opacity="1" />
			<stop stop-color="rgb(253,196,176)" offset="0.379099995" stop-opacity="1" />
			<stop stop-color="rgb(251,174,151)" offset="0.765500009" stop-opacity="1" />
			<stop stop-color="rgb(250,166,142)" offset="1" stop-opacity="1" />
		</linearGradient>
		<linearGradient id="paint_linear_92" x1="20.0001907" x2="20.0001907" y1="28.9151287" y2="31.8432121" gradientUnits="userSpaceOnUse">
			<stop stop-color="rgb(248,40,20)" offset="0" stop-opacity="0" />
			<stop stop-color="rgb(243,40,22)" offset="0.245800003" stop-opacity="0.246000007" />
			<stop stop-color="rgb(227,40,29)" offset="0.550599992" stop-opacity="0.550999999" />
			<stop stop-color="rgb(202,39,40)" offset="0.885299981" stop-opacity="0.88499999" />
			<stop stop-color="rgb(192,39,45)" offset="1" stop-opacity="1" />
		</linearGradient>
		<linearGradient id="paint_linear_93" x1="9.95692444" x2="8.62802792" y1="27.3468227" y2="25.273016" gradientUnits="userSpaceOnUse">
			<stop stop-color="rgb(248,40,20)" offset="0" stop-opacity="0" />
			<stop stop-color="rgb(241,40,23)" offset="0.245399997" stop-opacity="0.245000005" />
			<stop stop-color="rgb(221,40,32)" offset="0.605199993" stop-opacity="0.605000019" />
			<stop stop-color="rgb(192,39,45)" offset="1" stop-opacity="1" />
		</linearGradient>
		<linearGradient id="paint_linear_94" x1="8.87156487" x2="7.82237053" y1="28.5349445" y2="26.8977222" gradientUnits="userSpaceOnUse">
			<stop stop-color="rgb(248,40,20)" offset="0" stop-opacity="0" />
			<stop stop-color="rgb(241,40,23)" offset="0.245399997" stop-opacity="0.245000005" />
			<stop stop-color="rgb(221,40,32)" offset="0.605199993" stop-opacity="0.605000019" />
			<stop stop-color="rgb(192,39,45)" offset="1" stop-opacity="1" />
		</linearGradient>
		<linearGradient id="paint_linear_95" x1="10.5831318" x2="9.95058727" y1="28.6658611" y2="27.6788502" gradientUnits="userSpaceOnUse">
			<stop stop-color="rgb(248,40,20)" offset="0" stop-opacity="0" />
			<stop stop-color="rgb(241,40,23)" offset="0.245399997" stop-opacity="0.245000005" />
			<stop stop-color="rgb(221,40,32)" offset="0.605199993" stop-opacity="0.605000019" />
			<stop stop-color="rgb(192,39,45)" offset="1" stop-opacity="1" />
		</linearGradient>
		<linearGradient id="paint_linear_96" x1="12.1798811" x2="12.6622829" y1="27.6247787" y2="25.8882904" gradientUnits="userSpaceOnUse">
			<stop stop-color="rgb(248,40,20)" offset="0" stop-opacity="0" />
			<stop stop-color="rgb(241,40,23)" offset="0.245399997" stop-opacity="0.245000005" />
			<stop stop-color="rgb(221,40,32)" offset="0.605199993" stop-opacity="0.605000019" />
			<stop stop-color="rgb(192,39,45)" offset="1" stop-opacity="1" />
		</linearGradient>
		<linearGradient id="paint_linear_97" x1="10.9584837" x2="11.339426" y1="27.6364098" y2="26.2656918" gradientUnits="userSpaceOnUse">
			<stop stop-color="rgb(248,40,20)" offset="0" stop-opacity="0" />
			<stop stop-color="rgb(241,40,23)" offset="0.245399997" stop-opacity="0.245000005" />
			<stop stop-color="rgb(221,40,32)" offset="0.605199993" stop-opacity="0.605000019" />
			<stop stop-color="rgb(192,39,45)" offset="1" stop-opacity="1" />
		</linearGradient>
		<linearGradient id="paint_linear_98" x1="11.7208881" x2="11.9505711" y1="28.602169" y2="27.7757168" gradientUnits="userSpaceOnUse">
			<stop stop-color="rgb(248,40,20)" offset="0" stop-opacity="0" />
			<stop stop-color="rgb(241,40,23)" offset="0.245399997" stop-opacity="0.245000005" />
			<stop stop-color="rgb(221,40,32)" offset="0.605199993" stop-opacity="0.605000019" />
			<stop stop-color="rgb(192,39,45)" offset="1" stop-opacity="1" />
		</linearGradient>
		<linearGradient id="paint_linear_99" x1="18.9365063" x2="21.4346161" y1="19.1851254" y2="28.6134262" gradientUnits="userSpaceOnUse">
			<stop stop-color="rgb(255,222,207)" offset="0" stop-opacity="1" />
			<stop stop-color="rgb(253,196,176)" offset="0.379099995" stop-opacity="1" />
			<stop stop-color="rgb(251,174,151)" offset="0.765500009" stop-opacity="1" />
			<stop stop-color="rgb(250,166,142)" offset="1" stop-opacity="1" />
		</linearGradient>
		<linearGradient id="paint_linear_100" x1="20.0001888" x2="20.0001888" y1="25.8300056" y2="29.4905605" gradientUnits="userSpaceOnUse">
			<stop stop-color="rgb(248,40,20)" offset="0" stop-opacity="0" />
			<stop stop-color="rgb(243,40,22)" offset="0.245800003" stop-opacity="0.246000007" />
			<stop stop-color="rgb(227,40,29)" offset="0.550599992" stop-opacity="0.550999999" />
			<stop stop-color="rgb(202,39,40)" offset="0.885299981" stop-opacity="0.88499999" />
			<stop stop-color="rgb(192,39,45)" offset="1" stop-opacity="1" />
		</linearGradient>
		<linearGradient id="paint_linear_101" x1="21.4337673" x2="20.1048374" y1="25.2895203" y2="23.2157135" gradientUnits="userSpaceOnUse">
			<stop stop-color="rgb(248,40,20)" offset="0" stop-opacity="0" />
			<stop stop-color="rgb(241,40,23)" offset="0.245399997" stop-opacity="0.245000005" />
			<stop stop-color="rgb(221,40,32)" offset="0.605199993" stop-opacity="0.605000019" />
			<stop stop-color="rgb(192,39,45)" offset="1" stop-opacity="1" />
		</linearGradient>
		<linearGradient id="paint_linear_102" x1="20.348381" x2="19.2991867" y1="26.4776554" y2="24.8404408" gradientUnits="userSpaceOnUse">
			<stop stop-color="rgb(248,40,20)" offset="0" stop-opacity="0" />
			<stop stop-color="rgb(241,40,23)" offset="0.245399997" stop-opacity="0.245000005" />
			<stop stop-color="rgb(221,40,32)" offset="0.605199993" stop-opacity="0.605000019" />
			<stop stop-color="rgb(192,39,45)" offset="1" stop-opacity="1" />
		</linearGradient>
		<linearGradient id="paint_linear_103" x1="22.0600071" x2="21.4275455" y1="26.6086349" y2="25.6216335" gradientUnits="userSpaceOnUse">
			<stop stop-color="rgb(248,40,20)" offset="0" stop-opacity="0" />
			<stop stop-color="rgb(241,40,23)" offset="0.245399997" stop-opacity="0.245000005" />
			<stop stop-color="rgb(221,40,32)" offset="0.605199993" stop-opacity="0.605000019" />
			<stop stop-color="rgb(192,39,45)" offset="1" stop-opacity="1" />
		</linearGradient>
		<linearGradient id="paint_linear_104" x1="18.9365063" x2="21.4346161" y1="16.2370663" y2="25.6653671" gradientUnits="userSpaceOnUse">
			<stop stop-color="rgb(255,222,207)" offset="0" stop-opacity="1" />
			<stop stop-color="rgb(253,196,176)" offset="0.379099995" stop-opacity="1" />
			<stop stop-color="rgb(251,174,151)" offset="0.765500009" stop-opacity="1" />
			<stop stop-color="rgb(250,166,142)" offset="1" stop-opacity="1" />
		</linearGradient>
		<linearGradient id="paint_linear_105" x1="20.0001888" x2="20.0001888" y1="22.5881824" y2="26.3543739" gradientUnits="userSpaceOnUse">
			<stop stop-color="rgb(248,40,20)" offset="0" stop-opacity="0" />
			<stop stop-color="rgb(243,40,22)" offset="0.245800003" stop-opacity="0.246000007" />
			<stop stop-color="rgb(227,40,29)" offset="0.550599992" stop-opacity="0.550999999" />
			<stop stop-color="rgb(202,39,40)" offset="0.885299981" stop-opacity="0.88499999" />
			<stop stop-color="rgb(192,39,45)" offset="1" stop-opacity="1" />
		</linearGradient>
		<linearGradient id="paint_linear_106" x1="33.6956177" x2="34.2159767" y1="19.835041" y2="17.9622078" gradientUnits="userSpaceOnUse">
			<stop stop-color="rgb(248,40,20)" offset="0" stop-opacity="0" />
			<stop stop-color="rgb(241,40,23)" offset="0.245399997" stop-opacity="0.245000005" />
			<stop stop-color="rgb(221,40,32)" offset="0.605199993" stop-opacity="0.605000019" />
			<stop stop-color="rgb(192,39,45)" offset="1" stop-opacity="1" />
		</linearGradient>
		<linearGradient id="paint_linear_107" x1="32.4767494" x2="32.8875465" y1="19.8485413" y2="18.3700886" gradientUnits="userSpaceOnUse">
			<stop stop-color="rgb(248,40,20)" offset="0" stop-opacity="0" />
			<stop stop-color="rgb(241,40,23)" offset="0.245399997" stop-opacity="0.245000005" />
			<stop stop-color="rgb(221,40,32)" offset="0.605199993" stop-opacity="0.605000019" />
			<stop stop-color="rgb(192,39,45)" offset="1" stop-opacity="1" />
		</linearGradient>
		<linearGradient id="paint_linear_108" x1="33.2430534" x2="33.4907494" y1="20.8973598" y2="20.0060043" gradientUnits="userSpaceOnUse">
			<stop stop-color="rgb(248,40,20)" offset="0" stop-opacity="0" />
			<stop stop-color="rgb(241,40,23)" offset="0.245399997" stop-opacity="0.245000005" />
			<stop stop-color="rgb(221,40,32)" offset="0.605199993" stop-opacity="0.605000019" />
			<stop stop-color="rgb(192,39,45)" offset="1" stop-opacity="1" />
		</linearGradient>
		<linearGradient id="paint_linear_109" x1="18.9365063" x2="21.4346161" y1="13.2888851" y2="22.717186" gradientUnits="userSpaceOnUse">
			<stop stop-color="rgb(255,222,207)" offset="0" stop-opacity="1" />
			<stop stop-color="rgb(253,196,176)" offset="0.379099995" stop-opacity="1" />
			<stop stop-color="rgb(251,174,151)" offset="0.765500009" stop-opacity="1" />
			<stop stop-color="rgb(250,166,142)" offset="1" stop-opacity="1" />
		</linearGradient>
		<linearGradient id="paint_linear_110" x1="20.0001926" x2="20.0001926" y1="20.0259743" y2="23.1633854" gradientUnits="userSpaceOnUse">
			<stop stop-color="rgb(248,40,20)" offset="0" stop-opacity="0" />
			<stop stop-color="rgb(243,40,22)" offset="0.245800003" stop-opacity="0.246000007" />
			<stop stop-color="rgb(227,40,29)" offset="0.550599992" stop-opacity="0.550999999" />
			<stop stop-color="rgb(202,39,40)" offset="0.885299981" stop-opacity="0.88499999" />
			<stop stop-color="rgb(192,39,45)" offset="1" stop-opacity="1" />
		</linearGradient>
		<linearGradient id="paint_linear_111" x1="18.9365005" x2="21.4346161" y1="10.3409615" y2="19.7693634" gradientUnits="userSpaceOnUse">
			<stop stop-color="rgb(255,222,207)" offset="0" stop-opacity="1" />
			<stop stop-color="rgb(253,196,176)" offset="0.379099995" stop-opacity="1" />
			<stop stop-color="rgb(251,174,151)" offset="0.765500009" stop-opacity="1" />
			<stop stop-color="rgb(250,166,142)" offset="1" stop-opacity="1" />
		</linearGradient>
		<linearGradient id="paint_linear_112" x1="31.5772648" x2="29.974329" y1="13.3311701" y2="10.8297424" gradientUnits="userSpaceOnUse">
			<stop stop-color="rgb(248,40,20)" offset="0" stop-opacity="0" />
			<stop stop-color="rgb(241,40,23)" offset="0.245399997" stop-opacity="0.245000005" />
			<stop stop-color="rgb(221,40,32)" offset="0.605199993" stop-opacity="0.605000019" />
			<stop stop-color="rgb(192,39,45)" offset="1" stop-opacity="1" />
		</linearGradient>
		<linearGradient id="paint_linear_113" x1="30.4733219" x2="29.2079182" y1="14.8722239" y2="12.8975353" gradientUnits="userSpaceOnUse">
			<stop stop-color="rgb(248,40,20)" offset="0" stop-opacity="0" />
			<stop stop-color="rgb(241,40,23)" offset="0.245399997" stop-opacity="0.245000005" />
			<stop stop-color="rgb(221,40,32)" offset="0.605199993" stop-opacity="0.605000019" />
			<stop stop-color="rgb(192,39,45)" offset="1" stop-opacity="1" />
		</linearGradient>
		<linearGradient id="paint_linear_114" x1="32.1572647" x2="31.3943768" y1="15.0583029" y2="13.8677711" gradientUnits="userSpaceOnUse">
			<stop stop-color="rgb(248,40,20)" offset="0" stop-opacity="0" />
			<stop stop-color="rgb(241,40,23)" offset="0.245399997" stop-opacity="0.245000005" />
			<stop stop-color="rgb(221,40,32)" offset="0.605199993" stop-opacity="0.605000019" />
			<stop stop-color="rgb(192,39,45)" offset="1" stop-opacity="1" />
		</linearGradient>
		<linearGradient id="paint_linear_115" x1="33.6647606" x2="34.276226" y1="13.733284" y2="11.5323286" gradientUnits="userSpaceOnUse">
			<stop stop-color="rgb(248,40,20)" offset="0" stop-opacity="0" />
			<stop stop-color="rgb(241,40,23)" offset="0.245399997" stop-opacity="0.245000005" />
			<stop stop-color="rgb(221,40,32)" offset="0.605199993" stop-opacity="0.605000019" />
			<stop stop-color="rgb(192,39,45)" offset="1" stop-opacity="1" />
		</linearGradient>
		<linearGradient id="paint_linear_116" x1="32.4520912" x2="32.9348297" y1="13.7506094" y2="12.0130692" gradientUnits="userSpaceOnUse">
			<stop stop-color="rgb(248,40,20)" offset="0" stop-opacity="0" />
			<stop stop-color="rgb(241,40,23)" offset="0.245399997" stop-opacity="0.245000005" />
			<stop stop-color="rgb(221,40,32)" offset="0.605199993" stop-opacity="0.605000019" />
			<stop stop-color="rgb(192,39,45)" offset="1" stop-opacity="1" />
		</linearGradient>
		<linearGradient id="paint_linear_117" x1="33.2271843" x2="33.5182152" y1="14.9976883" y2="13.95016" gradientUnits="userSpaceOnUse">
			<stop stop-color="rgb(248,40,20)" offset="0" stop-opacity="0" />
			<stop stop-color="rgb(241,40,23)" offset="0.245399997" stop-opacity="0.245000005" />
			<stop stop-color="rgb(221,40,32)" offset="0.605199993" stop-opacity="0.605000019" />
			<stop stop-color="rgb(192,39,45)" offset="1" stop-opacity="1" />
		</linearGradient>
		<linearGradient id="paint_linear_118" x1="20.0001907" x2="20.0001907" y1="16.5230637" y2="20.6538086" gradientUnits="userSpaceOnUse">
			<stop stop-color="rgb(248,40,20)" offset="0" stop-opacity="0" />
			<stop stop-color="rgb(243,40,22)" offset="0.245800003" stop-opacity="0.246000007" />
			<stop stop-color="rgb(227,40,29)" offset="0.550599992" stop-opacity="0.550999999" />
			<stop stop-color="rgb(202,39,40)" offset="0.885299981" stop-opacity="0.88499999" />
			<stop stop-color="rgb(192,39,45)" offset="1" stop-opacity="1" />
		</linearGradient>
		<linearGradient id="paint_linear_119" x1="24.1859913" x2="2.93350554" y1="20.8193874" y2="4.47618103" gradientUnits="userSpaceOnUse">
			<stop stop-color="rgb(248,40,20)" offset="0" stop-opacity="0" />
			<stop stop-color="rgb(241,40,23)" offset="0.246099994" stop-opacity="0.246000007" />
			<stop stop-color="rgb(221,40,32)" offset="0.610499978" stop-opacity="0.611000001" />
			<stop stop-color="rgb(192,39,45)" offset="1" stop-opacity="1" />
		</linearGradient>
		<linearGradient id="paint_linear_120" x1="29.6715088" x2="13.776083" y1="23.4364738" y2="15.4364777" gradientUnits="userSpaceOnUse">
			<stop stop-color="rgb(248,40,20)" offset="0" stop-opacity="0" />
			<stop stop-color="rgb(241,40,23)" offset="0.246099994" stop-opacity="0.246000007" />
			<stop stop-color="rgb(221,40,32)" offset="0.610499978" stop-opacity="0.611000001" />
			<stop stop-color="rgb(192,39,45)" offset="1" stop-opacity="1" />
		</linearGradient>
		<linearGradient id="paint_linear_121" x1="30.7510681" x2="18.2020359" y1="19.8132095" y2="11.7608929" gradientUnits="userSpaceOnUse">
			<stop stop-color="rgb(248,40,20)" offset="0" stop-opacity="0" />
			<stop stop-color="rgb(241,40,23)" offset="0.246099994" stop-opacity="0.246000007" />
			<stop stop-color="rgb(221,40,32)" offset="0.610499978" stop-opacity="0.611000001" />
			<stop stop-color="rgb(192,39,45)" offset="1" stop-opacity="1" />
		</linearGradient>
		<linearGradient id="paint_linear_122" x1="36.2724571" x2="31.5142689" y1="17.5476627" y2="13.1293135" gradientUnits="userSpaceOnUse">
			<stop stop-color="rgb(248,40,20)" offset="0" stop-opacity="0" />
			<stop stop-color="rgb(241,40,23)" offset="0.246099994" stop-opacity="0.246000007" />
			<stop stop-color="rgb(221,40,32)" offset="0.610499978" stop-opacity="0.611000001" />
			<stop stop-color="rgb(192,39,45)" offset="1" stop-opacity="1" />
		</linearGradient>
		<radialGradient id="paint_radial_1" cx="0" cy="0" r="1" gradientUnits="userSpaceOnUse" gradientTransform="matrix(20.7072,0,0,14.5986,15.8429,7.22468)">
			<stop stop-color="rgb(255,217,69)" offset="0" stop-opacity="1" />
			<stop stop-color="rgb(255,214,67)" offset="0.312599987" stop-opacity="1" />
			<stop stop-color="rgb(255,204,61)" offset="0.559300005" stop-opacity="1" />
			<stop stop-color="rgb(255,187,51)" offset="0.782599986" stop-opacity="1" />
			<stop stop-color="rgb(255,164,38)" offset="0.992200017" stop-opacity="1" />
			<stop stop-color="rgb(255,163,37)" offset="1" stop-opacity="1" />
		</radialGradient>
		<linearGradient id="paint_linear_123" x1="27.6517372" x2="17.5601921" y1="12.383482" y2="-9.52498627" gradientUnits="userSpaceOnUse">
			<stop stop-color="rgb(248,40,20)" offset="0" stop-opacity="0" />
			<stop stop-color="rgb(192,39,45)" offset="1" stop-opacity="1" />
		</linearGradient>
		<linearGradient id="paint_linear_124" x1="15.4837856" x2="18.1773262" y1="6.59803724" y2="5.88920879" gradientUnits="userSpaceOnUse">
			<stop stop-color="rgb(186,218,0)" offset="0" stop-opacity="1" />
			<stop stop-color="rgb(176,206,0)" offset="0.226899996" stop-opacity="1" />
			<stop stop-color="rgb(149,174,0)" offset="0.637799978" stop-opacity="1" />
			<stop stop-color="rgb(121,140,0)" offset="1" stop-opacity="1" />
		</linearGradient>
		<linearGradient id="paint_linear_125" x1="17.4238663" x2="19.0785217" y1="4.30872822" y2="5.83645296" gradientUnits="userSpaceOnUse">
			<stop stop-color="rgb(186,218,0)" offset="0" stop-opacity="1" />
			<stop stop-color="rgb(176,206,0)" offset="0.226899996" stop-opacity="1" />
			<stop stop-color="rgb(149,174,0)" offset="0.637799978" stop-opacity="1" />
			<stop stop-color="rgb(121,140,0)" offset="1" stop-opacity="1" />
		</linearGradient>
		<linearGradient id="paint_linear_126" x1="19.6966972" x2="20.7075958" y1="5.98671532" y2="9.11134338" gradientUnits="userSpaceOnUse">
			<stop stop-color="rgb(255,169,54)" offset="0" stop-opacity="1" />
			<stop stop-color="rgb(255,133,72)" offset="0.411199987" stop-opacity="1" />
			<stop stop-color="rgb(255,108,84)" offset="0.778100014" stop-opacity="1" />
			<stop stop-color="rgb(255,99,89)" offset="1" stop-opacity="1" />
		</linearGradient>
		<linearGradient id="paint_linear_127" x1="19.5161705" x2="23.31493" y1="6.64734316" y2="11.6102457" gradientUnits="userSpaceOnUse">
			<stop stop-color="rgb(248,40,20)" offset="0" stop-opacity="0" />
			<stop stop-color="rgb(192,39,45)" offset="1" stop-opacity="1" />
		</linearGradient>
		<linearGradient id="paint_linear_128" x1="17.9402657" x2="44.6069565" y1="15.3387451" y2="-35.4848289" gradientUnits="userSpaceOnUse">
			<stop stop-color="rgb(248,40,20)" offset="0" stop-opacity="0" />
			<stop stop-color="rgb(192,39,45)" offset="1" stop-opacity="1" />
		</linearGradient>
	</defs>
	<rect id="_Food" width="40.000000" height="40.000000" x="0.000000" y="0.000000" fill="rgb(255,255,255)" fill-opacity="0" />
	<g id="Group">
		<path id="Vector" d="M19.9998 34.7956C15.0408 34.7956 10.4897 34.3066 6.92493 33.4916C7.43779 34.8422 8.40132 35.8637 9.5894 36.1906C12.2708 36.9285 15.9456 37.3836 19.9998 37.3836C24.0541 37.3836 27.7288 36.9285 30.4103 36.1906C31.5983 35.8637 32.5619 34.8422 33.0747 33.4916C29.5099 34.3066 24.9589 34.7956 19.9998 34.7956Z" fill="url(#paint_linear_79)" fill-rule="nonzero" />
		<path id="Vector" d="M40 30.9651C40 37.8217 0 37.8217 0 30.9651C0 24.1085 40 24.1085 40 30.9651Z" fill="url(#paint_linear_80)" fill-rule="nonzero" />
		<path id="Vector" d="M37.2549 30.4621C37.2549 35.3506 2.74512 35.3506 2.74512 30.4621C2.74512 25.5737 37.2549 25.5737 37.2549 30.4621Z" fill="url(#paint_linear_81)" fill-rule="nonzero" />
		<path id="Vector" d="M40.0002 30.9652C40.0002 25.5495 15.0463 24.4114 4.55784 27.5509C4.58458 27.582 4.61148 27.6131 4.6405 27.6437C4.09109 28.0776 3.78552 28.5635 3.78552 29.1017C3.78552 29.6049 4.0525 30.0623 4.53588 30.4745L9.47446 35.4131C21.3028 37.1356 40.0002 35.6532 40.0002 30.9652Z" fill="url(#paint_linear_82)" fill-rule="nonzero" />
		<g id="Group">
			<path id="Vector" d="M36.2163 29.1018C36.2163 34.6607 3.78717 34.6607 3.78717 29.1018C3.78717 23.5429 36.2163 23.5429 36.2163 29.1018Z" fill="url(#paint_linear_83)" fill-rule="nonzero" />
			<g id="Group" opacity="0.600000024">
				<g id="Group" opacity="0.600000024">
					<path id="Vector" d="M30.9697 27.9333C31.2658 27.9333 31.5057 27.6373 31.5057 27.2722C31.5057 26.9071 31.2658 26.6111 30.9697 26.6111C30.6737 26.6111 30.4337 26.9071 30.4337 27.2722C30.4337 27.6373 30.6737 27.9333 30.9697 27.9333Z" opacity="0.600000024" fill="url(#paint_linear_84)" fill-rule="evenodd" />
					<path id="Vector" d="M29.9748 29.5037C30.2084 29.5037 30.3979 29.27 30.3979 28.9817C30.3979 28.6935 30.2084 28.4598 29.9748 28.4598C29.7411 28.4598 29.5516 28.6935 29.5516 28.9817C29.5516 29.27 29.7411 29.5037 29.9748 29.5037Z" opacity="0.600000024" fill="url(#paint_linear_85)" fill-rule="evenodd" />
					<path id="Vector" d="M31.8193 29.7343C31.9602 29.7343 32.0744 29.5934 32.0744 29.4197C32.0744 29.2459 31.9602 29.105 31.8193 29.105C31.6784 29.105 31.5641 29.2459 31.5641 29.4197C31.5641 29.5934 31.6784 29.7343 31.8193 29.7343Z" opacity="0.600000024" fill="url(#paint_linear_86)" fill-rule="evenodd" />
				</g>
				<g id="Group" opacity="0.600000024">
					<path id="Vector" d="M33.804 28.2589C34.0227 28.2589 34.2 28.0402 34.2 27.7703C34.2 27.5005 34.0227 27.2818 33.804 27.2818C33.5852 27.2818 33.4079 27.5005 33.4079 27.7703C33.4079 28.0402 33.5852 28.2589 33.804 28.2589Z" opacity="0.600000024" fill="url(#paint_linear_87)" fill-rule="evenodd" />
					<path id="Vector" d="M32.5502 28.3223C32.7229 28.3223 32.8629 28.1497 32.8629 27.9367C32.8629 27.7237 32.7229 27.551 32.5502 27.551C32.3775 27.551 32.2375 27.7237 32.2375 27.9367C32.2375 28.1497 32.3775 28.3223 32.5502 28.3223Z" opacity="0.600000024" fill="url(#paint_linear_88)" fill-rule="evenodd" />
					<path id="Vector" d="M33.2632 29.6376C33.3673 29.6376 33.4517 29.5335 33.4517 29.4051C33.4517 29.2767 33.3673 29.1725 33.2632 29.1725C33.1591 29.1725 33.0748 29.2767 33.0748 29.4051C33.0748 29.5335 33.1591 29.6376 33.2632 29.6376Z" opacity="0.600000024" fill="url(#paint_linear_89)" fill-rule="evenodd" />
				</g>
			</g>
			<path id="Vector" d="M36.2148 29.1018C36.2148 27.8264 34.5071 26.8439 31.8763 26.1537L8.12395 26.1537C5.49329 26.8438 3.78552 27.8264 3.78552 29.1017C3.7856 34.6607 36.2148 34.6607 36.2148 29.1018Z" fill="url(#paint_linear_90)" fill-rule="nonzero" />
		</g>
		<g id="Group">
			<path id="Vector" d="M36.2163 26.1538C36.2163 31.7127 3.78717 31.7127 3.78717 26.1538C3.78717 20.5949 36.2163 20.5949 36.2163 26.1538Z" fill="url(#paint_linear_91)" fill-rule="nonzero" />
			<path id="Vector" d="M36.2148 26.1537C36.2148 24.8783 34.5071 23.8958 31.8763 23.2056L8.12395 23.2056C5.49329 23.8957 3.78552 24.8783 3.78552 26.1536C3.7856 31.7126 36.2148 31.7126 36.2148 26.1537Z" fill="url(#paint_linear_92)" fill-rule="nonzero" />
			<g id="Group" opacity="0.600000024">
				<g id="Group" opacity="0.600000024">
					<path id="Vector" d="M9.44707 27.1888C9.74309 27.1888 9.98307 26.9589 9.98307 26.6753C9.98307 26.3917 9.74309 26.1618 9.44707 26.1618C9.15105 26.1618 8.91107 26.3917 8.91107 26.6753C8.91107 26.9589 9.15105 27.1888 9.44707 27.1888Z" opacity="0.600000024" fill="url(#paint_linear_93)" fill-rule="evenodd" />
					<path id="Vector" d="M8.45201 28.4084C8.6857 28.4084 8.87515 28.2269 8.87515 28.0031C8.87515 27.7792 8.6857 27.5977 8.45201 27.5977C8.21832 27.5977 8.02887 27.7792 8.02887 28.0031C8.02887 28.2269 8.21832 28.4084 8.45201 28.4084Z" opacity="0.600000024" fill="url(#paint_linear_94)" fill-rule="evenodd" />
					<path id="Vector" d="M10.2966 28.5875C10.4376 28.5875 10.5518 28.4781 10.5518 28.3431C10.5518 28.2082 10.4376 28.0988 10.2966 28.0988C10.1557 28.0988 10.0415 28.2082 10.0415 28.3431C10.0415 28.4781 10.1557 28.5875 10.2966 28.5875Z" opacity="0.600000024" fill="url(#paint_linear_95)" fill-rule="evenodd" />
				</g>
				<g id="Group" opacity="0.600000024">
					<path id="Vector" d="M12.2812 27.4419C12.5 27.4419 12.6773 27.272 12.6773 27.0624C12.6773 26.8529 12.5 26.683 12.2812 26.683C12.0625 26.683 11.8851 26.8529 11.8851 27.0624C11.8851 27.272 12.0625 27.4419 12.2812 27.4419Z" opacity="0.600000024" fill="url(#paint_linear_96)" fill-rule="evenodd" />
					<path id="Vector" d="M11.0276 27.4909C11.2003 27.4909 11.3403 27.3568 11.3403 27.1914C11.3403 27.026 11.2003 26.8919 11.0276 26.8919C10.8548 26.8919 10.7148 27.026 10.7148 27.1914C10.7148 27.3568 10.8548 27.4909 11.0276 27.4909Z" opacity="0.600000024" fill="url(#paint_linear_97)" fill-rule="evenodd" />
					<path id="Vector" d="M11.7409 28.5126C11.845 28.5126 11.9294 28.4318 11.9294 28.3321C11.9294 28.2324 11.845 28.1516 11.7409 28.1516C11.6368 28.1516 11.5524 28.2324 11.5524 28.3321C11.5524 28.4318 11.6368 28.5126 11.7409 28.5126Z" opacity="0.600000024" fill="url(#paint_linear_98)" fill-rule="evenodd" />
				</g>
			</g>
		</g>
		<g id="Group">
			<path id="Vector" d="M36.2163 23.2057C36.2163 28.7646 3.78717 28.7646 3.78717 23.2057C3.78717 17.6468 36.2163 17.6468 36.2163 23.2057Z" fill="url(#paint_linear_99)" fill-rule="nonzero" />
			<path id="Vector" d="M36.2148 23.2055C36.2148 21.9302 34.5071 20.9476 31.8763 20.2574L8.12395 20.2574C5.49329 20.9476 3.78552 21.9302 3.78552 23.2055C3.7856 28.7644 36.2148 28.7644 36.2148 23.2055Z" fill="url(#paint_linear_100)" fill-rule="nonzero" />
			<g id="Group" opacity="0.600000024">
				<g id="Group" opacity="0.600000024">
					<path id="Vector" d="M20.9182 25.1338C21.2142 25.1338 21.4542 24.9039 21.4542 24.6204C21.4542 24.3368 21.2142 24.1069 20.9182 24.1069C20.6222 24.1069 20.3822 24.3368 20.3822 24.6204C20.3822 24.9039 20.6222 25.1338 20.9182 25.1338Z" opacity="0.600000024" fill="url(#paint_linear_101)" fill-rule="evenodd" />
					<path id="Vector" d="M19.9231 26.3534C20.1568 26.3534 20.3463 26.1719 20.3463 25.9481C20.3463 25.7242 20.1568 25.5427 19.9231 25.5427C19.6894 25.5427 19.5 25.7242 19.5 25.9481C19.5 26.1719 19.6894 26.3534 19.9231 26.3534Z" opacity="0.600000024" fill="url(#paint_linear_102)" fill-rule="evenodd" />
					<path id="Vector" d="M21.7678 26.5326C21.9087 26.5326 22.023 26.4232 22.023 26.2882C22.023 26.1532 21.9087 26.0438 21.7678 26.0438C21.6269 26.0438 21.5127 26.1532 21.5127 26.2882C21.5127 26.4232 21.6269 26.5326 21.7678 26.5326Z" opacity="0.600000024" fill="url(#paint_linear_103)" fill-rule="evenodd" />
				</g>
			</g>
		</g>
		<g id="Group">
			<path id="Vector" d="M36.2163 20.2576C36.2163 25.8165 3.78717 25.8165 3.78717 20.2576C3.78717 14.6987 36.2163 14.6987 36.2163 20.2576Z" fill="url(#paint_linear_104)" fill-rule="nonzero" />
			<path id="Vector" d="M36.2148 20.2575C36.2148 18.9822 34.5071 17.9996 31.8763 17.3094L8.12395 17.3094C5.49329 17.9996 3.78552 18.9822 3.78552 20.2574C3.7856 25.8164 36.2148 25.8164 36.2148 20.2575Z" fill="url(#paint_linear_105)" fill-rule="nonzero" />
			<g id="Group" opacity="0.600000024">
				<g id="Group" opacity="0.600000024">
					<path id="Vector" d="M33.8044 19.6469C34.0231 19.6469 34.2005 19.4626 34.2005 19.2352C34.2005 19.0079 34.0231 18.8235 33.8044 18.8235C33.5857 18.8235 33.4083 19.0079 33.4083 19.2352C33.4083 19.4626 33.5857 19.6469 33.8044 19.6469Z" opacity="0.600000024" fill="url(#paint_linear_106)" fill-rule="evenodd" />
					<path id="Vector" d="M32.5506 19.7003C32.7233 19.7003 32.8633 19.5548 32.8633 19.3754C32.8633 19.1959 32.7233 19.0504 32.5506 19.0504C32.3779 19.0504 32.2379 19.1959 32.2379 19.3754C32.2379 19.5548 32.3779 19.7003 32.5506 19.7003Z" opacity="0.600000024" fill="url(#paint_linear_107)" fill-rule="evenodd" />
					<path id="Vector" d="M33.264 20.8087C33.3681 20.8087 33.4525 20.721 33.4525 20.6128C33.4525 20.5046 33.3681 20.4169 33.264 20.4169C33.1599 20.4169 33.0756 20.5046 33.0756 20.6128C33.0756 20.721 33.1599 20.8087 33.264 20.8087Z" opacity="0.600000024" fill="url(#paint_linear_108)" fill-rule="evenodd" />
				</g>
			</g>
		</g>
		<g id="Group">
			<path id="Vector" d="M36.2163 17.3094C36.2163 22.8683 3.78717 22.8683 3.78717 17.3094C3.78717 11.7505 36.2163 11.7505 36.2163 17.3094Z" fill="url(#paint_linear_109)" fill-rule="nonzero" />
			<path id="Vector" d="M36.2148 17.3093C36.2148 16.034 34.5071 15.0515 31.8763 14.3613L8.12395 14.3613C5.49329 15.0514 3.78552 16.034 3.78552 17.3093C3.7856 22.8682 36.2148 22.8682 36.2148 17.3093Z" fill="url(#paint_linear_110)" fill-rule="nonzero" />
		</g>
		<g id="Group">
			<path id="Vector" d="M36.2163 14.3616C36.2163 19.9205 3.78717 19.9205 3.78717 14.3616C3.78717 8.80268 36.2163 8.80261 36.2163 14.3616Z" fill="url(#paint_linear_111)" fill-rule="nonzero" />
			<g id="Group" opacity="0.600000024">
				<g id="Group" opacity="0.600000024">
					<path id="Vector" d="M30.9697 13.1928C31.2658 13.1928 31.5057 12.8968 31.5057 12.5317C31.5057 12.1666 31.2658 11.8706 30.9697 11.8706C30.6737 11.8706 30.4337 12.1666 30.4337 12.5317C30.4337 12.8968 30.6737 13.1928 30.9697 13.1928Z" opacity="0.600000024" fill="url(#paint_linear_112)" fill-rule="evenodd" />
					<path id="Vector" d="M29.9748 14.7632C30.2084 14.7632 30.3979 14.5295 30.3979 14.2412C30.3979 13.9529 30.2084 13.7192 29.9748 13.7192C29.7411 13.7192 29.5516 13.9529 29.5516 14.2412C29.5516 14.5295 29.7411 14.7632 29.9748 14.7632Z" opacity="0.600000024" fill="url(#paint_linear_113)" fill-rule="evenodd" />
					<path id="Vector" d="M31.8193 14.9941C31.9602 14.9941 32.0744 14.8533 32.0744 14.6795C32.0744 14.5057 31.9602 14.3648 31.8193 14.3648C31.6784 14.3648 31.5641 14.5057 31.5641 14.6795C31.5641 14.8533 31.6784 14.9941 31.8193 14.9941Z" opacity="0.600000024" fill="url(#paint_linear_114)" fill-rule="evenodd" />
				</g>
				<g id="Group" opacity="0.600000024">
					<path id="Vector" d="M33.804 13.5184C34.0227 13.5184 34.2 13.2996 34.2 13.0298C34.2 12.76 34.0227 12.5413 33.804 12.5413C33.5852 12.5413 33.4079 12.76 33.4079 13.0298C33.4079 13.2996 33.5852 13.5184 33.804 13.5184Z" opacity="0.600000024" fill="url(#paint_linear_115)" fill-rule="evenodd" />
					<path id="Vector" d="M32.5502 13.5815C32.7229 13.5815 32.8629 13.4089 32.8629 13.1959C32.8629 12.9829 32.7229 12.8102 32.5502 12.8102C32.3775 12.8102 32.2375 12.9829 32.2375 13.1959C32.2375 13.4089 32.3775 13.5815 32.5502 13.5815Z" opacity="0.600000024" fill="url(#paint_linear_116)" fill-rule="evenodd" />
					<path id="Vector" d="M33.2632 14.8971C33.3673 14.8971 33.4517 14.793 33.4517 14.6646C33.4517 14.5361 33.3673 14.432 33.2632 14.432C33.1591 14.432 33.0748 14.5361 33.0748 14.6646C33.0748 14.793 33.1591 14.8971 33.2632 14.8971Z" opacity="0.600000024" fill="url(#paint_linear_117)" fill-rule="evenodd" />
				</g>
			</g>
			<path id="Vector" d="M36.2148 14.3617C36.2148 13.0863 34.5071 12.1038 31.8763 11.4136L8.12395 11.4136C5.49329 12.1037 3.78552 13.0863 3.78552 14.3616C3.7856 19.9206 36.2148 19.9206 36.2148 14.3617Z" fill="url(#paint_linear_118)" fill-rule="nonzero" />
		</g>
		<path id="Vector" d="M36.2146 29.1017C36.2146 28.5568 35.9021 28.0657 35.34 27.6276C35.9019 27.1896 36.2146 26.6985 36.2146 26.1536C36.2146 25.6087 35.9021 25.1176 35.34 24.6796C35.9019 24.2416 36.2146 23.7505 36.2146 23.2056C36.2146 22.6607 35.9021 22.1696 35.34 21.7316C35.9019 21.2936 36.2146 20.8025 36.2146 20.2576C36.2146 19.7128 35.9021 19.2216 35.34 18.7836C35.9019 18.3456 36.2146 17.8545 36.2146 17.3096C36.2146 16.7647 35.9021 16.2736 35.34 15.8356C35.9019 15.3976 36.2146 14.9064 36.2146 14.3616C36.2146 9.77814 14.1685 8.97406 6.4314 11.949L6.4314 20.2432C6.4314 20.7191 6.66763 21.1391 7.02857 21.3948L18.896 33.2623C27.3541 33.3941 36.2146 32.0074 36.2146 29.1017Z" fill="url(#paint_linear_119)" fill-rule="nonzero" />
		<path id="Vector" d="M36.2145 14.3617C36.2145 11.258 26.1059 9.88745 17.1764 10.2496L17.1764 27.5499C17.1764 28.0204 17.4071 28.4356 17.7605 28.6921L22.3016 33.2332C29.5732 32.9944 36.2145 31.6176 36.2145 29.1019C36.2145 28.5571 35.9019 28.0659 35.3398 27.6279C35.9018 27.1899 36.2145 26.6987 36.2145 26.1539C36.2145 25.609 35.9019 25.1179 35.3398 24.6799C35.9018 24.2419 36.2145 23.7507 36.2145 23.2059C36.2145 22.661 35.9019 22.1699 35.3398 21.7319C35.9018 21.2939 36.2145 20.8027 36.2145 20.2579C36.2145 19.7131 35.9019 19.2219 35.3398 18.7839C35.9018 18.3459 36.2145 17.8547 36.2145 17.3099C36.2145 16.765 35.9019 16.2739 35.3398 15.8359C35.9018 15.3977 36.2145 14.9064 36.2145 14.3617Z" fill="url(#paint_linear_120)" fill-rule="nonzero" />
		<path id="Vector" d="M36.2145 29.1016C36.2145 28.5567 35.9019 28.0656 35.3398 27.6276C35.9017 27.1895 36.2145 26.6984 36.2145 26.1535C36.2145 25.6087 35.9019 25.1175 35.3398 24.6796C35.9017 24.2415 36.2145 23.7504 36.2145 23.2055C36.2145 22.6607 35.9019 22.1695 35.3398 21.7316C35.9017 21.2935 36.2145 20.8024 36.2145 20.2575C36.2145 19.7127 35.9019 19.2215 35.3398 18.7836C35.9017 18.3455 36.2145 17.8544 36.2145 17.3095C36.2145 16.7647 35.9019 16.2735 35.3398 15.8356C35.9017 15.3975 36.2145 14.9064 36.2145 14.3615C36.2145 11.7909 29.2799 10.4092 21.8242 10.2162L21.8242 19.2015C21.8242 19.6544 22.0383 20.0564 22.3699 20.3148L33.5693 31.514C35.2156 30.881 36.2145 30.077 36.2145 29.1016Z" fill="url(#paint_linear_121)" fill-rule="nonzero" />
		<path id="Vector" d="M36.2145 20.2577C36.2145 19.7129 35.9019 19.2217 35.3398 18.7837C35.9018 18.3457 36.2145 17.8546 36.2145 17.3097C36.2145 16.7648 35.9019 16.2737 35.3398 15.8357C35.9018 15.3977 36.2145 14.9066 36.2145 14.3617C36.2145 12.9706 34.1833 11.928 31.1384 11.2332L31.1384 15.6713C31.1384 16.0979 31.3285 16.4794 31.6275 16.7383L35.963 21.0737C36.127 20.8165 36.2145 20.5446 36.2145 20.2577Z" fill="url(#paint_linear_122)" fill-rule="nonzero" />
		<path id="Vector" d="M36.2144 11.4136C36.2144 5.85472 3.78522 5.85472 3.78522 11.4136C3.78522 12.2191 4.46679 12.9077 5.63149 13.4797C6.11832 13.7188 6.43118 14.2093 6.43118 14.7517L6.43118 20.2432C6.43118 21.0229 7.06326 21.655 7.84294 21.655C8.62263 21.655 9.25471 21.0229 9.25471 20.2432L9.25471 18.0729C9.25471 16.3125 10.7945 14.9514 12.5422 15.1628C13.1746 15.2393 13.8263 15.3053 14.4921 15.3609C16.0098 15.4877 17.1763 16.759 17.1763 18.2821L17.1763 27.5503C17.1763 28.3299 17.8084 28.962 18.588 28.962C19.3677 28.962 19.9998 28.3299 19.9998 27.5503L19.9998 18.7562C19.9998 18.2525 20.4081 17.8441 20.9119 17.8441C21.4156 17.8441 21.824 18.2524 21.824 18.7562L21.824 19.2013C21.824 19.981 22.456 20.6131 23.2357 20.6131C24.0154 20.6131 24.6475 19.981 24.6475 19.2013L24.6475 18.5893C24.6475 16.8296 25.9608 15.3527 27.7066 15.1322C28.525 15.0288 29.3092 14.9077 30.0476 14.7688C30.6142 14.6621 31.1383 15.0946 31.1383 15.6713C31.1383 16.451 31.7704 17.083 32.5501 17.083C33.3298 17.083 33.9618 16.451 33.9618 15.6713L33.9618 15.663C33.9618 14.5713 34.4843 13.5564 35.3446 12.8844C35.9041 12.4473 36.2144 11.9571 36.2144 11.4136Z" fill="url(#paint_radial_1)" fill-rule="nonzero" />
		<path id="Vector" d="M36.215 11.4134C36.215 11.957 35.9044 12.4472 35.3452 12.8848C34.4848 13.5562 33.9625 14.5711 33.9625 15.6629L33.9625 15.6715C33.9625 15.7154 33.9601 15.7593 33.9562 15.8025C33.9256 16.1397 33.775 16.4432 33.5491 16.6699C33.2935 16.9256 32.9405 17.0832 32.5507 17.0832C32.1601 17.0832 31.8072 16.9256 31.5523 16.6699C31.2966 16.4142 31.139 16.0613 31.139 15.6715C31.139 15.0942 30.6142 14.6621 30.048 14.7687C29.3091 14.9076 28.5256 15.0291 27.7068 15.1319C26.6276 15.2683 25.7131 15.8848 25.1727 16.7523L16.815 8.39462C16.5186 8.1554 16.3499 7.8558 16.3711 7.47933C16.3735 7.43227 16.3782 7.38521 16.3852 7.33893C19.4417 7.17736 22.6786 7.22364 25.6307 7.47697C31.4809 7.97737 36.215 9.28952 36.215 11.4134Z" fill="url(#paint_linear_123)" fill-rule="nonzero" />
		<path id="Vector" d="M18.1746 5.59905C18.7524 6.17678 18.7524 7.11341 18.1746 7.69106C17.5969 8.26878 16.6603 8.26878 16.0826 7.69106C15.5049 7.11333 14.6542 5.32604 15.2319 4.74831C15.8095 4.17058 17.597 5.02141 18.1746 5.59905Z" fill="url(#paint_linear_124)" fill-rule="nonzero" />
		<path id="Vector" d="M19.222 5.59553C19.248 6.51129 18.8257 7.26627 18.2788 7.2818C17.7319 7.29733 17.2674 6.56752 17.2415 5.65168C17.2155 4.73584 17.5995 2.63231 18.1464 2.61678C18.6933 2.60133 19.1961 4.67968 19.222 5.59553Z" fill="url(#paint_linear_125)" fill-rule="nonzero" />
		<g id="Group">
			<path id="Vector" d="M21.228 4.17338C21.1267 4.16993 21.0253 4.18013 20.927 4.20483C20.1543 4.39848 16.4876 5.42436 16.3709 7.47926C16.2982 8.75911 18.4125 9.15487 20.2998 9.25432C22.0231 9.34515 23.5102 8.42648 23.6111 7.21158C23.7255 5.8355 23.3842 4.24726 21.228 4.17338Z" fill="url(#paint_linear_126)" fill-rule="nonzero" />
			<path id="Vector" d="M21.228 4.17338C21.1267 4.16993 21.0254 4.18013 20.927 4.20483C20.1544 4.39848 16.4876 5.42436 16.3709 7.47927C16.2982 8.75911 18.4126 9.15487 20.2998 9.25432C22.0231 9.34515 23.3843 4.24726 21.228 4.17338Z" fill="url(#paint_linear_127)" fill-rule="nonzero" />
		</g>
		<path id="Vector" d="M4.23424 10.3344C3.94247 10.6672 3.78522 11.0268 3.78522 11.4133C3.78522 12.2188 4.46679 12.9075 5.63141 13.4795C6.11824 13.7185 6.43118 14.209 6.43118 14.7515L6.43118 20.2429C6.43118 21.0226 7.06326 21.6547 7.84294 21.6547C8.62263 21.6547 9.25471 21.0226 9.25471 20.2429L9.25471 18.0726C9.25471 16.3122 10.7945 14.9511 12.5422 15.1625C13.1746 15.239 13.8263 15.305 14.4921 15.3606C16.0098 15.4874 17.1763 16.7587 17.1763 18.2818L17.1763 27.55C17.1763 28.3297 17.8084 28.9617 18.588 28.9617C19.3677 28.9617 19.9998 28.3297 19.9998 27.55L19.9998 18.7559C19.9998 18.2522 20.4081 17.8438 20.9119 17.8438C21.4156 17.8438 21.824 18.2522 21.824 18.7559L21.824 19.201C21.824 19.9807 22.456 20.6128 23.2357 20.6128C24.0154 20.6128 24.6475 19.9807 24.6475 19.201L24.6475 18.589C24.6475 16.8293 25.9608 15.3524 27.7066 15.1319C28.525 15.0286 29.3092 14.9075 30.0476 14.7685C30.6142 14.6618 31.1383 15.0944 31.1383 15.671C31.1383 16.4507 31.7704 17.0828 32.5501 17.0828C33.3298 17.0828 33.9618 16.4507 33.9618 15.671L33.9618 15.6627C33.9618 14.571 34.4843 13.5562 35.3446 12.8841C35.9041 12.447 36.2144 11.9567 36.2144 11.4133C36.2144 11.0267 36.0571 10.6671 35.7654 10.3344C32.1526 14.4547 7.84702 14.4547 4.23424 10.3344Z" fill="url(#paint_linear_128)" fill-rule="nonzero" />
	</g>
</svg>
