<svg viewBox="0 0 40.0002 40" xmlns="http://www.w3.org/2000/svg" xmlns:xlink="http://www.w3.org/1999/xlink" width="40.000244" height="40.000000" fill="none" customFrame="#000000">
	<defs>
		<linearGradient id="paint_linear_129" x1="17.5180511" x2="19.6286392" y1="23.4413986" y2="28.0684547" gradientUnits="userSpaceOnUse">
			<stop stop-color="rgb(250,166,142)" offset="0" stop-opacity="1" />
			<stop stop-color="rgb(251,166,130)" offset="0.206100002" stop-opacity="1" />
			<stop stop-color="rgb(253,168,97)" offset="0.580799997" stop-opacity="1" />
			<stop stop-color="rgb(255,169,54)" offset="1" stop-opacity="1" />
		</linearGradient>
		<linearGradient id="paint_linear_130" x1="19.725853" x2="17.9443645" y1="28.3754292" y2="23.2225742" gradientUnits="userSpaceOnUse">
			<stop stop-color="rgb(248,40,20)" offset="0" stop-opacity="0" />
			<stop stop-color="rgb(241,40,23)" offset="0.245399997" stop-opacity="0.245000005" />
			<stop stop-color="rgb(221,40,32)" offset="0.605199993" stop-opacity="0.605000019" />
			<stop stop-color="rgb(192,39,45)" offset="1" stop-opacity="1" />
		</linearGradient>
		<linearGradient id="paint_linear_131" x1="11.377677" x2="20.7771339" y1="17.3472214" y2="28.6040859" gradientUnits="userSpaceOnUse">
			<stop stop-color="rgb(255,217,69)" offset="0" stop-opacity="1" />
			<stop stop-color="rgb(255,205,62)" offset="0.30430001" stop-opacity="1" />
			<stop stop-color="rgb(255,173,43)" offset="0.855799973" stop-opacity="1" />
			<stop stop-color="rgb(255,163,37)" offset="1" stop-opacity="1" />
		</linearGradient>
		<linearGradient id="paint_linear_132" x1="24.3906307" x2="27.7254524" y1="16.7302361" y2="12.0023136" gradientUnits="userSpaceOnUse">
			<stop stop-color="rgb(248,40,20)" offset="0" stop-opacity="0" />
			<stop stop-color="rgb(192,39,45)" offset="1" stop-opacity="1" />
		</linearGradient>
		<linearGradient id="paint_linear_133" x1="22.8429699" x2="7.81501102" y1="18.5951729" y2="-4.65023041" gradientUnits="userSpaceOnUse">
			<stop stop-color="rgb(248,40,20)" offset="0" stop-opacity="0" />
			<stop stop-color="rgb(192,39,45)" offset="1" stop-opacity="1" />
		</linearGradient>
		<linearGradient id="paint_linear_134" x1="15.1520672" x2="8.82014561" y1="20.2855453" y2="8.42366123" gradientUnits="userSpaceOnUse">
			<stop stop-color="rgb(248,40,20)" offset="0" stop-opacity="0" />
			<stop stop-color="rgb(192,39,45)" offset="1" stop-opacity="1" />
		</linearGradient>
		<linearGradient id="paint_linear_135" x1="25.213316" x2="18.9094582" y1="23.6170597" y2="11.7410631" gradientUnits="userSpaceOnUse">
			<stop stop-color="rgb(248,40,20)" offset="0" stop-opacity="0" />
			<stop stop-color="rgb(192,39,45)" offset="1" stop-opacity="1" />
		</linearGradient>
		<linearGradient id="paint_linear_136" x1="11.2713146" x2="6.20574474" y1="30.1098862" y2="21.4983406" gradientUnits="userSpaceOnUse">
			<stop stop-color="rgb(248,40,20)" offset="0" stop-opacity="0" />
			<stop stop-color="rgb(192,39,45)" offset="1" stop-opacity="1" />
		</linearGradient>
		<linearGradient id="paint_linear_137" x1="16.6777039" x2="17.4484501" y1="15.1736536" y2="17.041256" gradientUnits="userSpaceOnUse">
			<stop stop-color="rgb(186,218,0)" offset="0" stop-opacity="1" />
			<stop stop-color="rgb(176,206,0)" offset="0.226899996" stop-opacity="1" />
			<stop stop-color="rgb(149,174,0)" offset="0.637799978" stop-opacity="1" />
			<stop stop-color="rgb(121,140,0)" offset="1" stop-opacity="1" />
		</linearGradient>
		<linearGradient id="paint_linear_138" x1="17.0393143" x2="16.3041553" y1="15.8287125" y2="14.6814518" gradientUnits="userSpaceOnUse">
			<stop stop-color="rgb(121,140,0)" offset="0" stop-opacity="0" />
			<stop stop-color="rgb(85,97,0)" offset="0.654200017" stop-opacity="0.653999984" />
			<stop stop-color="rgb(70,79,0)" offset="1" stop-opacity="1" />
		</linearGradient>
		<linearGradient id="paint_linear_139" x1="16.4553127" x2="15.874896" y1="16.4955025" y2="15.5897999" gradientUnits="userSpaceOnUse">
			<stop stop-color="rgb(121,140,0)" offset="0" stop-opacity="0" />
			<stop stop-color="rgb(85,97,0)" offset="0.654200017" stop-opacity="0.653999984" />
			<stop stop-color="rgb(70,79,0)" offset="1" stop-opacity="1" />
		</linearGradient>
		<linearGradient id="paint_linear_140" x1="17.3715782" x2="17.0217209" y1="16.5704746" y2="16.0243969" gradientUnits="userSpaceOnUse">
			<stop stop-color="rgb(121,140,0)" offset="0" stop-opacity="0" />
			<stop stop-color="rgb(85,97,0)" offset="0.654200017" stop-opacity="0.653999984" />
			<stop stop-color="rgb(70,79,0)" offset="1" stop-opacity="1" />
		</linearGradient>
		<linearGradient id="paint_linear_141" x1="9.21945095" x2="9.99019623" y1="21.6340427" y2="23.5016441" gradientUnits="userSpaceOnUse">
			<stop stop-color="rgb(186,218,0)" offset="0" stop-opacity="1" />
			<stop stop-color="rgb(176,206,0)" offset="0.226899996" stop-opacity="1" />
			<stop stop-color="rgb(149,174,0)" offset="0.637799978" stop-opacity="1" />
			<stop stop-color="rgb(121,140,0)" offset="1" stop-opacity="1" />
		</linearGradient>
		<linearGradient id="paint_linear_142" x1="9.57792091" x2="8.84276199" y1="22.2932529" y2="21.1459942" gradientUnits="userSpaceOnUse">
			<stop stop-color="rgb(121,140,0)" offset="0" stop-opacity="0" />
			<stop stop-color="rgb(85,97,0)" offset="0.654200017" stop-opacity="0.653999984" />
			<stop stop-color="rgb(70,79,0)" offset="1" stop-opacity="1" />
		</linearGradient>
		<linearGradient id="paint_linear_143" x1="8.99368668" x2="8.41333103" y1="22.9600773" y2="22.054327" gradientUnits="userSpaceOnUse">
			<stop stop-color="rgb(121,140,0)" offset="0" stop-opacity="0" />
			<stop stop-color="rgb(85,97,0)" offset="0.654200017" stop-opacity="0.653999984" />
			<stop stop-color="rgb(70,79,0)" offset="1" stop-opacity="1" />
		</linearGradient>
		<linearGradient id="paint_linear_144" x1="9.91042137" x2="9.56050014" y1="23.0349789" y2="22.488945" gradientUnits="userSpaceOnUse">
			<stop stop-color="rgb(121,140,0)" offset="0" stop-opacity="0" />
			<stop stop-color="rgb(85,97,0)" offset="0.654200017" stop-opacity="0.653999984" />
			<stop stop-color="rgb(70,79,0)" offset="1" stop-opacity="1" />
		</linearGradient>
		<linearGradient id="paint_linear_145" x1="18.5038662" x2="19.2746086" y1="23.4915848" y2="25.35919" gradientUnits="userSpaceOnUse">
			<stop stop-color="rgb(186,218,0)" offset="0" stop-opacity="1" />
			<stop stop-color="rgb(176,206,0)" offset="0.226899996" stop-opacity="1" />
			<stop stop-color="rgb(149,174,0)" offset="0.637799978" stop-opacity="1" />
			<stop stop-color="rgb(121,140,0)" offset="1" stop-opacity="1" />
		</linearGradient>
		<linearGradient id="paint_linear_146" x1="18.8675613" x2="18.1324043" y1="24.1507549" y2="23.0034924" gradientUnits="userSpaceOnUse">
			<stop stop-color="rgb(121,140,0)" offset="0" stop-opacity="0" />
			<stop stop-color="rgb(85,97,0)" offset="0.654200017" stop-opacity="0.653999984" />
			<stop stop-color="rgb(70,79,0)" offset="1" stop-opacity="1" />
		</linearGradient>
		<linearGradient id="paint_linear_147" x1="18.2830811" x2="17.7027321" y1="24.8176174" y2="23.9119492" gradientUnits="userSpaceOnUse">
			<stop stop-color="rgb(121,140,0)" offset="0" stop-opacity="0" />
			<stop stop-color="rgb(85,97,0)" offset="0.654200017" stop-opacity="0.653999984" />
			<stop stop-color="rgb(70,79,0)" offset="1" stop-opacity="1" />
		</linearGradient>
		<linearGradient id="paint_linear_148" x1="19.1996613" x2="18.8497238" y1="24.8924122" y2="24.346384" gradientUnits="userSpaceOnUse">
			<stop stop-color="rgb(121,140,0)" offset="0" stop-opacity="0" />
			<stop stop-color="rgb(85,97,0)" offset="0.654200017" stop-opacity="0.653999984" />
			<stop stop-color="rgb(70,79,0)" offset="1" stop-opacity="1" />
		</linearGradient>
		<linearGradient id="paint_linear_149" x1="31.7848816" x2="32.5556297" y1="19.2913494" y2="21.1588936" gradientUnits="userSpaceOnUse">
			<stop stop-color="rgb(186,218,0)" offset="0" stop-opacity="1" />
			<stop stop-color="rgb(176,206,0)" offset="0.226899996" stop-opacity="1" />
			<stop stop-color="rgb(149,174,0)" offset="0.637799978" stop-opacity="1" />
			<stop stop-color="rgb(121,140,0)" offset="1" stop-opacity="1" />
		</linearGradient>
		<linearGradient id="paint_linear_150" x1="32.154747" x2="31.419508" y1="19.946907" y2="18.7996445" gradientUnits="userSpaceOnUse">
			<stop stop-color="rgb(121,140,0)" offset="0" stop-opacity="0" />
			<stop stop-color="rgb(85,97,0)" offset="0.654200017" stop-opacity="0.653999984" />
			<stop stop-color="rgb(70,79,0)" offset="1" stop-opacity="1" />
		</linearGradient>
		<linearGradient id="paint_linear_151" x1="31.5704403" x2="30.9899921" y1="20.6136341" y2="19.7079277" gradientUnits="userSpaceOnUse">
			<stop stop-color="rgb(121,140,0)" offset="0" stop-opacity="0" />
			<stop stop-color="rgb(85,97,0)" offset="0.654200017" stop-opacity="0.653999984" />
			<stop stop-color="rgb(70,79,0)" offset="1" stop-opacity="1" />
		</linearGradient>
		<linearGradient id="paint_linear_152" x1="32.4867477" x2="32.1368446" y1="20.6886311" y2="20.1425972" gradientUnits="userSpaceOnUse">
			<stop stop-color="rgb(121,140,0)" offset="0" stop-opacity="0" />
			<stop stop-color="rgb(85,97,0)" offset="0.654200017" stop-opacity="0.653999984" />
			<stop stop-color="rgb(70,79,0)" offset="1" stop-opacity="1" />
		</linearGradient>
		<linearGradient id="paint_linear_153" x1="16.7743835" x2="17.5451298" y1="7.62781811" y2="9.49542999" gradientUnits="userSpaceOnUse">
			<stop stop-color="rgb(186,218,0)" offset="0" stop-opacity="1" />
			<stop stop-color="rgb(176,206,0)" offset="0.226899996" stop-opacity="1" />
			<stop stop-color="rgb(149,174,0)" offset="0.637799978" stop-opacity="1" />
			<stop stop-color="rgb(121,140,0)" offset="1" stop-opacity="1" />
		</linearGradient>
		<linearGradient id="paint_linear_154" x1="17.1349087" x2="16.3997498" y1="8.27903652" y2="7.13177586" gradientUnits="userSpaceOnUse">
			<stop stop-color="rgb(121,140,0)" offset="0" stop-opacity="0" />
			<stop stop-color="rgb(85,97,0)" offset="0.654200017" stop-opacity="0.653999984" />
			<stop stop-color="rgb(70,79,0)" offset="1" stop-opacity="1" />
		</linearGradient>
		<linearGradient id="paint_linear_155" x1="16.5509872" x2="15.9705677" y1="8.94596672" y2="8.04023743" gradientUnits="userSpaceOnUse">
			<stop stop-color="rgb(121,140,0)" offset="0" stop-opacity="0" />
			<stop stop-color="rgb(85,97,0)" offset="0.654200017" stop-opacity="0.653999984" />
			<stop stop-color="rgb(70,79,0)" offset="1" stop-opacity="1" />
		</linearGradient>
		<linearGradient id="paint_linear_156" x1="17.4675751" x2="17.1176319" y1="9.02078056" y2="8.47480488" gradientUnits="userSpaceOnUse">
			<stop stop-color="rgb(121,140,0)" offset="0" stop-opacity="0" />
			<stop stop-color="rgb(85,97,0)" offset="0.654200017" stop-opacity="0.653999984" />
			<stop stop-color="rgb(70,79,0)" offset="1" stop-opacity="1" />
		</linearGradient>
		<linearGradient id="paint_linear_157" x1="17.7677727" x2="16.3847141" y1="9.3642292" y2="13.400403" gradientUnits="userSpaceOnUse">
			<stop stop-color="rgb(255,222,207)" offset="0" stop-opacity="1" />
			<stop stop-color="rgb(253,196,176)" offset="0.379099995" stop-opacity="1" />
			<stop stop-color="rgb(251,174,151)" offset="0.765500009" stop-opacity="1" />
			<stop stop-color="rgb(250,166,142)" offset="1" stop-opacity="1" />
		</linearGradient>
		<linearGradient id="paint_linear_158" x1="15.9450378" x2="17.0612144" y1="14.4973621" y2="11.2400055" gradientUnits="userSpaceOnUse">
			<stop stop-color="rgb(255,222,207)" offset="0" stop-opacity="1" />
			<stop stop-color="rgb(253,196,176)" offset="0.379099995" stop-opacity="1" />
			<stop stop-color="rgb(251,174,151)" offset="0.765500009" stop-opacity="1" />
			<stop stop-color="rgb(250,166,142)" offset="1" stop-opacity="1" />
		</linearGradient>
		<linearGradient id="paint_linear_159" x1="2.94514823" x2="4.21150112" y1="28.7866936" y2="30.8551426" gradientUnits="userSpaceOnUse">
			<stop stop-color="rgb(165,124,82)" offset="0" stop-opacity="1" />
			<stop stop-color="rgb(162,108,74)" offset="0.133900002" stop-opacity="1" />
			<stop stop-color="rgb(153,67,54)" offset="0.515500009" stop-opacity="1" />
			<stop stop-color="rgb(148,42,42)" offset="0.817399979" stop-opacity="1" />
			<stop stop-color="rgb(146,33,37)" offset="1" stop-opacity="1" />
		</linearGradient>
		<linearGradient id="paint_linear_160" x1="7.19097519" x2="6.01047993" y1="24.6066113" y2="28.0517254" gradientUnits="userSpaceOnUse">
			<stop stop-color="rgb(255,222,207)" offset="0" stop-opacity="1" />
			<stop stop-color="rgb(253,196,176)" offset="0.379099995" stop-opacity="1" />
			<stop stop-color="rgb(251,174,151)" offset="0.765500009" stop-opacity="1" />
			<stop stop-color="rgb(250,166,142)" offset="1" stop-opacity="1" />
		</linearGradient>
		<linearGradient id="paint_linear_161" x1="5.63969803" x2="6.59240294" y1="28.9875889" y2="26.2072067" gradientUnits="userSpaceOnUse">
			<stop stop-color="rgb(255,222,207)" offset="0" stop-opacity="1" />
			<stop stop-color="rgb(253,196,176)" offset="0.379099995" stop-opacity="1" />
			<stop stop-color="rgb(251,174,151)" offset="0.765500009" stop-opacity="1" />
			<stop stop-color="rgb(250,166,142)" offset="1" stop-opacity="1" />
		</linearGradient>
		<linearGradient id="paint_linear_162" x1="25.5543327" x2="27.2319756" y1="21.471283" y2="24.2573795" gradientUnits="userSpaceOnUse">
			<stop stop-color="rgb(165,124,82)" offset="0" stop-opacity="1" />
			<stop stop-color="rgb(162,108,74)" offset="0.133900002" stop-opacity="1" />
			<stop stop-color="rgb(153,67,54)" offset="0.515500009" stop-opacity="1" />
			<stop stop-color="rgb(148,42,42)" offset="0.817399979" stop-opacity="1" />
			<stop stop-color="rgb(146,33,37)" offset="1" stop-opacity="1" />
		</linearGradient>
		<linearGradient id="paint_linear_163" x1="24.7445965" x2="26.2080536" y1="17.2483101" y2="20.7942734" gradientUnits="userSpaceOnUse">
			<stop stop-color="rgb(255,99,89)" offset="0" stop-opacity="1" />
			<stop stop-color="rgb(254,91,80)" offset="0.224299997" stop-opacity="1" />
			<stop stop-color="rgb(252,70,55)" offset="0.595200002" stop-opacity="1" />
			<stop stop-color="rgb(248,40,20)" offset="1" stop-opacity="1" />
		</linearGradient>
		<linearGradient id="paint_linear_164" x1="25.4970055" x2="24.1010742" y1="18.3832283" y2="16.2049389" gradientUnits="userSpaceOnUse">
			<stop stop-color="rgb(248,40,20)" offset="0" stop-opacity="0" />
			<stop stop-color="rgb(241,40,23)" offset="0.245399997" stop-opacity="0.245000005" />
			<stop stop-color="rgb(221,40,32)" offset="0.605199993" stop-opacity="0.605000019" />
			<stop stop-color="rgb(192,39,45)" offset="1" stop-opacity="1" />
		</linearGradient>
		<linearGradient id="paint_linear_165" x1="24.3876801" x2="23.2857151" y1="19.6492996" y2="17.9296894" gradientUnits="userSpaceOnUse">
			<stop stop-color="rgb(248,40,20)" offset="0" stop-opacity="0" />
			<stop stop-color="rgb(241,40,23)" offset="0.245399997" stop-opacity="0.245000005" />
			<stop stop-color="rgb(221,40,32)" offset="0.605199993" stop-opacity="0.605000019" />
			<stop stop-color="rgb(192,39,45)" offset="1" stop-opacity="1" />
		</linearGradient>
		<linearGradient id="paint_linear_166" x1="26.1276493" x2="25.4633484" y1="19.7914715" y2="18.7547569" gradientUnits="userSpaceOnUse">
			<stop stop-color="rgb(248,40,20)" offset="0" stop-opacity="0" />
			<stop stop-color="rgb(241,40,23)" offset="0.245399997" stop-opacity="0.245000005" />
			<stop stop-color="rgb(221,40,32)" offset="0.605199993" stop-opacity="0.605000019" />
			<stop stop-color="rgb(192,39,45)" offset="1" stop-opacity="1" />
		</linearGradient>
		<linearGradient id="paint_linear_167" x1="10.3198547" x2="11.7832241" y1="23.6068897" y2="27.152832" gradientUnits="userSpaceOnUse">
			<stop stop-color="rgb(255,99,89)" offset="0" stop-opacity="1" />
			<stop stop-color="rgb(254,91,80)" offset="0.224299997" stop-opacity="1" />
			<stop stop-color="rgb(252,70,55)" offset="0.595200002" stop-opacity="1" />
			<stop stop-color="rgb(248,40,20)" offset="1" stop-opacity="1" />
		</linearGradient>
		<linearGradient id="paint_linear_168" x1="11.0650301" x2="9.66917801" y1="24.7466831" y2="22.5683994" gradientUnits="userSpaceOnUse">
			<stop stop-color="rgb(248,40,20)" offset="0" stop-opacity="0" />
			<stop stop-color="rgb(241,40,23)" offset="0.245399997" stop-opacity="0.245000005" />
			<stop stop-color="rgb(221,40,32)" offset="0.605199993" stop-opacity="0.605000019" />
			<stop stop-color="rgb(192,39,45)" offset="1" stop-opacity="1" />
		</linearGradient>
		<linearGradient id="paint_linear_169" x1="9.95584583" x2="8.85391521" y1="26.0128632" y2="24.2932053" gradientUnits="userSpaceOnUse">
			<stop stop-color="rgb(248,40,20)" offset="0" stop-opacity="0" />
			<stop stop-color="rgb(241,40,23)" offset="0.245399997" stop-opacity="0.245000005" />
			<stop stop-color="rgb(221,40,32)" offset="0.605199993" stop-opacity="0.605000019" />
			<stop stop-color="rgb(192,39,45)" offset="1" stop-opacity="1" />
		</linearGradient>
		<linearGradient id="paint_linear_170" x1="11.6959238" x2="11.031539" y1="26.1549301" y2="25.1182098" gradientUnits="userSpaceOnUse">
			<stop stop-color="rgb(248,40,20)" offset="0" stop-opacity="0" />
			<stop stop-color="rgb(241,40,23)" offset="0.245399997" stop-opacity="0.245000005" />
			<stop stop-color="rgb(221,40,32)" offset="0.605199993" stop-opacity="0.605000019" />
			<stop stop-color="rgb(192,39,45)" offset="1" stop-opacity="1" />
		</linearGradient>
		<linearGradient id="paint_linear_171" x1="17.2420006" x2="18.9197235" y1="18.4018898" y2="21.1880074" gradientUnits="userSpaceOnUse">
			<stop stop-color="rgb(165,124,82)" offset="0" stop-opacity="1" />
			<stop stop-color="rgb(162,108,74)" offset="0.133900002" stop-opacity="1" />
			<stop stop-color="rgb(153,67,54)" offset="0.515500009" stop-opacity="1" />
			<stop stop-color="rgb(148,42,42)" offset="0.817399979" stop-opacity="1" />
			<stop stop-color="rgb(146,33,37)" offset="1" stop-opacity="1" />
		</linearGradient>
		<linearGradient id="paint_linear_172" x1="20.2554455" x2="16.9065132" y1="26.2723083" y2="19.9402752" gradientUnits="userSpaceOnUse">
			<stop stop-color="rgb(121,140,0)" offset="0" stop-opacity="0" />
			<stop stop-color="rgb(85,97,0)" offset="0.654200017" stop-opacity="0.653999984" />
			<stop stop-color="rgb(70,79,0)" offset="1" stop-opacity="1" />
		</linearGradient>
		<linearGradient id="paint_linear_173" x1="20.7636204" x2="19.5831242" y1="18.9494076" y2="22.3945351" gradientUnits="userSpaceOnUse">
			<stop stop-color="rgb(255,222,207)" offset="0" stop-opacity="1" />
			<stop stop-color="rgb(253,196,176)" offset="0.379099995" stop-opacity="1" />
			<stop stop-color="rgb(251,174,151)" offset="0.765500009" stop-opacity="1" />
			<stop stop-color="rgb(250,166,142)" offset="1" stop-opacity="1" />
		</linearGradient>
		<linearGradient id="paint_linear_174" x1="19.2123127" x2="20.1650162" y1="23.3303032" y2="20.5500469" gradientUnits="userSpaceOnUse">
			<stop stop-color="rgb(255,222,207)" offset="0" stop-opacity="1" />
			<stop stop-color="rgb(253,196,176)" offset="0.379099995" stop-opacity="1" />
			<stop stop-color="rgb(251,174,151)" offset="0.765500009" stop-opacity="1" />
			<stop stop-color="rgb(250,166,142)" offset="1" stop-opacity="1" />
		</linearGradient>
		<linearGradient id="paint_linear_175" x1="5.33468628" x2="6.05743122" y1="21.6993656" y2="23.1448421" gradientUnits="userSpaceOnUse">
			<stop stop-color="rgb(138,120,137)" offset="0" stop-opacity="1" />
			<stop stop-color="rgb(134,115,133)" offset="0.334399998" stop-opacity="1" />
			<stop stop-color="rgb(123,102,123)" offset="0.70389998" stop-opacity="1" />
			<stop stop-color="rgb(110,86,110)" offset="1" stop-opacity="1" />
		</linearGradient>
		<linearGradient id="paint_linear_176" x1="13.2446022" x2="13.96735" y1="19.5328598" y2="20.9783516" gradientUnits="userSpaceOnUse">
			<stop stop-color="rgb(138,120,137)" offset="0" stop-opacity="1" />
			<stop stop-color="rgb(134,115,133)" offset="0.334399998" stop-opacity="1" />
			<stop stop-color="rgb(123,102,123)" offset="0.70389998" stop-opacity="1" />
			<stop stop-color="rgb(110,86,110)" offset="1" stop-opacity="1" />
		</linearGradient>
		<linearGradient id="paint_linear_177" x1="23.3183327" x2="24.0410805" y1="13.9393539" y2="15.3848467" gradientUnits="userSpaceOnUse">
			<stop stop-color="rgb(138,120,137)" offset="0" stop-opacity="1" />
			<stop stop-color="rgb(134,115,133)" offset="0.334399998" stop-opacity="1" />
			<stop stop-color="rgb(123,102,123)" offset="0.70389998" stop-opacity="1" />
			<stop stop-color="rgb(110,86,110)" offset="1" stop-opacity="1" />
		</linearGradient>
		<linearGradient id="paint_linear_178" x1="2.24704027" x2="2.96978521" y1="30.335413" y2="31.7808895" gradientUnits="userSpaceOnUse">
			<stop stop-color="rgb(138,120,137)" offset="0" stop-opacity="1" />
			<stop stop-color="rgb(134,115,133)" offset="0.334399998" stop-opacity="1" />
			<stop stop-color="rgb(123,102,123)" offset="0.70389998" stop-opacity="1" />
			<stop stop-color="rgb(110,86,110)" offset="1" stop-opacity="1" />
		</linearGradient>
		<linearGradient id="paint_linear_179" x1="10.6826544" x2="12.1460266" y1="15.2461748" y2="18.7921352" gradientUnits="userSpaceOnUse">
			<stop stop-color="rgb(255,99,89)" offset="0" stop-opacity="1" />
			<stop stop-color="rgb(254,91,80)" offset="0.224299997" stop-opacity="1" />
			<stop stop-color="rgb(252,70,55)" offset="0.595200002" stop-opacity="1" />
			<stop stop-color="rgb(248,40,20)" offset="1" stop-opacity="1" />
		</linearGradient>
		<linearGradient id="paint_linear_180" x1="11.4275522" x2="10.0317039" y1="16.3816624" y2="14.2032967" gradientUnits="userSpaceOnUse">
			<stop stop-color="rgb(248,40,20)" offset="0" stop-opacity="0" />
			<stop stop-color="rgb(241,40,23)" offset="0.245399997" stop-opacity="0.245000005" />
			<stop stop-color="rgb(221,40,32)" offset="0.605199993" stop-opacity="0.605000019" />
			<stop stop-color="rgb(192,39,45)" offset="1" stop-opacity="1" />
		</linearGradient>
		<linearGradient id="paint_linear_181" x1="10.3182049" x2="9.21627522" y1="17.6477928" y2="15.9281826" gradientUnits="userSpaceOnUse">
			<stop stop-color="rgb(248,40,20)" offset="0" stop-opacity="0" />
			<stop stop-color="rgb(241,40,23)" offset="0.245399997" stop-opacity="0.245000005" />
			<stop stop-color="rgb(221,40,32)" offset="0.605199993" stop-opacity="0.605000019" />
			<stop stop-color="rgb(192,39,45)" offset="1" stop-opacity="1" />
		</linearGradient>
		<linearGradient id="paint_linear_182" x1="12.0582008" x2="11.393899" y1="17.7899647" y2="16.75317" gradientUnits="userSpaceOnUse">
			<stop stop-color="rgb(248,40,20)" offset="0" stop-opacity="0" />
			<stop stop-color="rgb(241,40,23)" offset="0.245399997" stop-opacity="0.245000005" />
			<stop stop-color="rgb(221,40,32)" offset="0.605199993" stop-opacity="0.605000019" />
			<stop stop-color="rgb(192,39,45)" offset="1" stop-opacity="1" />
		</linearGradient>
		<linearGradient id="paint_linear_183" x1="22.4695454" x2="24.1471977" y1="11.129961" y2="13.9160824" gradientUnits="userSpaceOnUse">
			<stop stop-color="rgb(165,124,82)" offset="0" stop-opacity="1" />
			<stop stop-color="rgb(162,108,74)" offset="0.133900002" stop-opacity="1" />
			<stop stop-color="rgb(153,67,54)" offset="0.515500009" stop-opacity="1" />
			<stop stop-color="rgb(148,42,42)" offset="0.817399979" stop-opacity="1" />
			<stop stop-color="rgb(146,33,37)" offset="1" stop-opacity="1" />
		</linearGradient>
		<linearGradient id="paint_linear_184" x1="29.2394943" x2="26.3126659" y1="10.3821239" y2="15.1662807" gradientUnits="userSpaceOnUse">
			<stop stop-color="rgb(250,166,142)" offset="0" stop-opacity="1" />
			<stop stop-color="rgb(251,166,130)" offset="0.206100002" stop-opacity="1" />
			<stop stop-color="rgb(253,168,97)" offset="0.580799997" stop-opacity="1" />
			<stop stop-color="rgb(255,169,54)" offset="1" stop-opacity="1" />
		</linearGradient>
	</defs>
	<rect id="_Food" width="40.000000" height="40.000000" x="0.000000" y="0.000000" fill="rgb(255,255,255)" fill-opacity="0" />
	<g id="Group">
		<path id="Vector" d="M17.569 7.67865C17.569 7.67865 5.41727 15.113 0.924404 35.3168C0.590051 36.8203 2.30887 37.9307 3.5397 37.0049C8.92637 32.9534 20.3777 25.7177 36.2227 23.1167C38.0287 22.8202 38.9405 20.7824 37.9581 19.2382C35.5646 15.4761 29.9603 9.68477 17.569 7.67865Z" fill="url(#paint_linear_129)" fill-rule="nonzero" />
		<path id="Vector" d="M37.9285 19.1924C20.5184 21.3085 7.94892 29.206 2.22586 33.5106C1.92453 33.7372 1.59402 33.8414 1.27151 33.8484C1.15158 34.3317 1.03472 34.8205 0.92382 35.3193C0.589781 36.8218 2.30962 37.9302 3.53974 37.005C8.92735 32.9528 20.3818 25.7152 36.2311 23.1154C38.0266 22.8209 38.9421 20.7885 37.9669 19.2525C37.9542 19.2325 37.9414 19.2125 37.9285 19.1924Z" fill="url(#paint_linear_130)" fill-rule="nonzero" />
		<path id="Vector" d="M38.597 20.6902C38.597 20.6902 35.4321 9.32918 16.4936 6.70361C16.4936 6.70361 4.39768 14.0347 0.0398792 33.4855C-0.284513 34.9336 1.44043 35.9674 2.66506 35.0587C3.13259 34.7118 3.64608 34.3409 4.20459 33.951C4.90372 33.4628 5.86364 33.9639 5.86364 34.8165L5.86364 34.8772C5.86364 35.7787 6.59439 36.5094 7.49588 36.5094C8.39737 36.5094 9.12812 35.7787 9.12812 34.8772L9.12812 33.1673C9.12812 31.6825 9.93839 30.3163 11.2421 29.6057C14.4327 27.8665 18.2117 26.094 22.5208 24.5562C23.2077 24.3111 23.9309 24.8212 23.9309 25.5506C23.9309 26.4521 24.6616 27.1828 25.5631 27.1828C26.4646 27.1828 27.1953 26.4521 27.1953 25.5506L27.1953 23.4497C27.1953 23.2134 27.3525 23.006 27.58 22.942L27.5906 22.939C27.929 22.8438 28.2647 23.0981 28.2647 23.4496L28.2647 28.7683C28.2647 29.6698 28.9954 30.4006 29.8969 30.4006C30.7984 30.4006 31.5291 29.6698 31.5291 28.7683L31.5291 24.2292C31.5291 22.883 32.4798 21.7198 33.8014 21.4633C35.3558 21.1617 36.9549 20.9015 38.597 20.6902Z" fill="url(#paint_linear_131)" fill-rule="nonzero" />
		<path id="Vector" d="M16.4935 6.70349C16.4935 6.70349 14.184 8.10341 11.2197 11.3024L26.6673 26.75C26.9912 26.4517 27.1953 26.0255 27.1953 25.5505L27.1953 23.4496C27.1953 23.2133 27.3525 23.0058 27.58 22.9418L27.5906 22.9389C27.929 22.8436 28.2647 23.098 28.2647 23.4495L28.2647 28.3474L30.2725 30.3553C30.9926 30.1854 31.5291 29.5401 31.5291 28.7682L31.5291 24.229C31.5291 22.8828 32.4798 21.7196 33.8014 21.4631C35.3557 21.1615 36.9547 20.9012 38.5968 20.69C38.5969 20.69 35.432 9.32898 16.4935 6.70349Z" fill="url(#paint_linear_132)" fill-rule="nonzero" />
		<path id="Vector" d="M20.4409 10.5176C20.2808 10.3362 20.0949 10.1638 19.8827 10.0037C18.152 8.69863 15.3459 8.69863 13.6153 10.0037C11.9746 11.2409 11.8904 13.2063 13.3603 14.5193L25.9705 27.1295C26.6744 26.9483 27.1953 26.3111 27.1953 25.5506L27.1953 23.4498C27.1953 23.2135 27.3525 23.006 27.5799 22.942L27.5906 22.939C27.9289 22.8438 28.2646 23.0982 28.2646 23.4496L28.2646 28.7684C28.2646 29.1588 28.4021 29.5169 28.6307 29.7978C28.742 29.9131 28.8647 30.024 28.998 30.1302C29.2558 30.3007 29.5645 30.4007 29.8968 30.4007C30.7983 30.4007 31.529 29.6699 31.529 28.7684L31.529 24.2292C31.529 23.5082 31.802 22.8399 32.2583 22.335L20.4409 10.5176Z" fill="url(#paint_linear_133)" fill-rule="nonzero" />
		<path id="Vector" d="M14.3343 15.7627C13.7341 15.0688 12.6501 14.6055 11.4125 14.6055C9.52407 14.6055 7.99316 15.6841 7.99316 17.0146C7.99316 17.5826 8.27277 18.1042 8.73936 18.5161L16.9739 26.7764C18.7098 26.0047 20.5598 25.256 22.5208 24.5561C22.7009 24.4918 22.8833 24.4806 23.0547 24.5106L14.3343 15.7627Z" fill="url(#paint_linear_134)" fill-rule="nonzero" />
		<path id="Vector" d="M28.3548 17.7193C27.747 17.051 26.6846 16.6077 25.4746 16.6077C23.5862 16.6077 22.0553 17.6863 22.0553 19.0169C22.0553 19.0713 22.0587 19.125 22.0637 19.1784C20.5881 18.398 18.5392 18.5041 17.2208 19.4983C15.8329 20.545 15.7492 22.2025 16.9694 23.323L19.3939 25.7476C20.4026 25.3386 21.4452 24.9401 22.5208 24.5563C23.2077 24.3112 23.9308 24.8212 23.9308 25.5506C23.9308 26.4521 24.6615 27.1829 25.563 27.1829C26.4645 27.1829 27.1953 26.4521 27.1953 25.5506L27.1953 23.4498C27.1953 23.2135 27.3525 23.006 27.5799 22.942L27.5906 22.939C27.9289 22.8438 28.2646 23.0982 28.2646 23.4496L28.2646 28.7684C28.2646 29.6698 28.9954 30.4006 29.8969 30.4006C30.7983 30.4006 31.5291 29.6698 31.5291 28.7684L31.5291 24.2291C31.5291 23.3302 31.9534 22.5133 32.6285 21.9931L28.3548 17.7193Z" fill="url(#paint_linear_135)" fill-rule="nonzero" />
		<path id="Vector" d="M16.7352 26.8831L13.93 24.0779C13.3223 23.4096 12.2598 22.9662 11.0496 22.9662C9.56826 22.9662 8.30724 23.63 7.83233 24.5584C6.44849 24.1039 4.77798 24.3027 3.64614 25.1562C2.25814 26.2029 2.17453 27.8605 3.39477 28.9809L9.12818 34.7144L9.12818 33.1673C9.12818 31.6825 9.93845 30.3163 11.2421 29.6057C12.9138 28.6943 14.7487 27.7742 16.7352 26.8831Z" fill="url(#paint_linear_136)" fill-rule="nonzero" />
		<g id="Group">
			<g id="Group">
				<path id="Vector" d="M7.66894 20.0681C7.74416 19.9263 7.6902 19.7504 7.54847 19.6752C7.40667 19.6 7.23075 19.6539 7.15553 19.7956C7.08031 19.9374 7.13427 20.1134 7.276 20.1886C7.41773 20.2639 7.59365 20.2099 7.66894 20.0681Z" fill="rgb(255,234,162)" fill-rule="nonzero" />
				<path id="Vector" d="M6.71468 20.1854C6.60276 20.126 6.46386 20.1686 6.40448 20.2805C6.34511 20.3924 6.3877 20.5313 6.49962 20.5907C6.61154 20.6501 6.75044 20.6075 6.80982 20.4956C6.86919 20.3836 6.8266 20.2447 6.71468 20.1854Z" fill="rgb(255,234,162)" fill-rule="nonzero" />
				<path id="Vector" d="M6.9668 21.3815C6.89935 21.3457 6.81558 21.3714 6.77981 21.4388C6.74405 21.5063 6.7697 21.59 6.83715 21.6258C6.9046 21.6616 6.98837 21.6359 7.02413 21.5685C7.05997 21.501 7.03433 21.4173 6.9668 21.3815Z" fill="rgb(255,234,162)" fill-rule="nonzero" />
				<path id="Vector" d="M8.95015 21.7635C8.78968 21.7589 8.65596 21.8854 8.65149 22.0458C8.64694 22.2062 8.77337 22.3399 8.93376 22.3444C9.09423 22.349 9.22795 22.2225 9.23242 22.0621C9.23697 21.9017 9.11062 21.768 8.95015 21.7635Z" fill="rgb(255,234,162)" fill-rule="nonzero" />
				<path id="Vector" d="M10.4624 19.7077C10.3358 19.7041 10.2302 19.804 10.2267 19.9306C10.223 20.0572 10.3229 20.1628 10.4495 20.1664C10.5761 20.17 10.6817 20.0702 10.6853 19.9435C10.6888 19.8168 10.5891 19.7113 10.4624 19.7077Z" fill="rgb(255,234,162)" fill-rule="nonzero" />
				<path id="Vector" d="M8.33073 19.7949C8.25434 19.7928 8.19073 19.8529 8.18853 19.9293C8.18641 20.0056 8.24657 20.0692 8.32289 20.0714C8.39928 20.0736 8.46289 20.0134 8.46508 19.9371C8.46728 19.8607 8.40712 19.7971 8.33073 19.7949Z" fill="rgb(255,234,162)" fill-rule="nonzero" />
				<path id="Vector" d="M7.87439 20.9865C7.75878 21.0128 7.68639 21.1279 7.71266 21.2436C7.73901 21.3592 7.85407 21.4315 7.96976 21.4053C8.08536 21.3789 8.15776 21.2639 8.13148 21.1482C8.10505 21.0326 7.98999 20.9602 7.87439 20.9865Z" fill="rgb(255,234,162)" fill-rule="nonzero" />
				<path id="Vector" d="M8.11486 20.387C8.02357 20.4077 7.96639 20.4986 7.98718 20.5899C8.00796 20.6812 8.09886 20.7384 8.19016 20.7176C8.28146 20.6969 8.33863 20.6059 8.31785 20.5146C8.29698 20.4233 8.20616 20.3662 8.11486 20.387Z" fill="rgb(255,234,162)" fill-rule="nonzero" />
				<path id="Vector" d="M7.42572 20.7186C7.48078 20.7061 7.51521 20.6513 7.50266 20.5963C7.49011 20.5412 7.43536 20.5068 7.3803 20.5193C7.32524 20.5319 7.29081 20.5866 7.30336 20.6417C7.31591 20.6967 7.37066 20.7312 7.42572 20.7186Z" fill="rgb(255,234,162)" fill-rule="nonzero" />
				<path id="Vector" d="M13.0566 19.2097C13.1319 19.0679 13.0779 18.892 12.9362 18.8168C12.7944 18.7416 12.6184 18.7955 12.5432 18.9373C12.468 19.0791 12.522 19.255 12.6637 19.3302C12.8055 19.4054 12.9814 19.3514 13.0566 19.2097Z" fill="rgb(255,234,162)" fill-rule="nonzero" />
				<path id="Vector" d="M11.6497 21.7091C11.5378 21.6497 11.3989 21.6923 11.3395 21.8043C11.2802 21.9162 11.3228 22.0551 11.4347 22.1145C11.5466 22.1738 11.6855 22.1312 11.7449 22.0193C11.8043 21.9074 11.7617 21.7685 11.6497 21.7091Z" fill="rgb(255,234,162)" fill-rule="nonzero" />
				<path id="Vector" d="M11.2869 20.4467C11.2194 20.4109 11.1356 20.4366 11.0999 20.5041C11.0641 20.5715 11.0898 20.6553 11.1572 20.691C11.2247 20.7269 11.3084 20.7012 11.3442 20.6337C11.38 20.5663 11.3543 20.4826 11.2869 20.4467Z" fill="rgb(255,234,162)" fill-rule="nonzero" />
				<path id="Vector" d="M14.6394 19.6019C14.4789 19.5974 14.3452 19.7238 14.3407 19.8842C14.3361 20.0447 14.4626 20.1784 14.623 20.1829C14.7834 20.1874 14.9172 20.061 14.9216 19.9006C14.9262 19.7402 14.7998 19.6065 14.6394 19.6019Z" fill="rgb(255,234,162)" fill-rule="nonzero" />
				<path id="Vector" d="M14.6072 19.2139C14.6108 19.0872 14.511 18.9816 14.3843 18.9781C14.2576 18.9746 14.1521 19.0744 14.1485 19.2009C14.1449 19.3276 14.2448 19.4332 14.3714 19.4368C14.498 19.4403 14.6036 19.3406 14.6072 19.2139Z" fill="rgb(255,234,162)" fill-rule="nonzero" />
				<path id="Vector" d="M13.7184 18.9363C13.642 18.9342 13.5784 18.9943 13.5762 19.0707C13.5741 19.1471 13.6343 19.2107 13.7106 19.2129C13.787 19.215 13.8506 19.1548 13.8528 19.0785C13.8549 19.0021 13.7947 18.9385 13.7184 18.9363Z" fill="rgb(255,234,162)" fill-rule="nonzero" />
				<path id="Vector" d="M12.4655 20.944C12.3498 20.9703 12.2775 21.0854 12.3037 21.2011C12.3301 21.3167 12.4451 21.3891 12.5608 21.3628C12.6764 21.3364 12.7488 21.2214 12.7226 21.1057C12.6962 20.99 12.5811 20.9176 12.4655 20.944Z" fill="rgb(255,234,162)" fill-rule="nonzero" />
				<path id="Vector" d="M13.5026 19.5283C13.4113 19.5491 13.3541 19.64 13.3749 19.7312C13.3957 19.8225 13.4866 19.8797 13.5778 19.8589C13.6691 19.8381 13.7263 19.7472 13.7055 19.656C13.6848 19.5647 13.5939 19.5075 13.5026 19.5283Z" fill="rgb(255,234,162)" fill-rule="nonzero" />
				<path id="Vector" d="M12.8134 19.8602C12.8685 19.8477 12.9029 19.7929 12.8903 19.7379C12.8778 19.6828 12.8231 19.6484 12.768 19.6609C12.7129 19.6735 12.6785 19.7282 12.6911 19.7833C12.7035 19.8382 12.7583 19.8728 12.8134 19.8602Z" fill="rgb(255,234,162)" fill-rule="nonzero" />
			</g>
			<g id="Group">
				<path id="Vector" d="M16.0698 23.8722C16.145 23.7304 16.0911 23.5545 15.9494 23.4793C15.8076 23.4041 15.6316 23.4581 15.5564 23.5998C15.4812 23.7416 15.5352 23.9175 15.6769 23.9927C15.8187 24.068 15.9946 24.014 16.0698 23.8722Z" fill="rgb(255,234,162)" fill-rule="nonzero" />
				<path id="Vector" d="M15.1158 23.9896C15.0039 23.9302 14.865 23.9728 14.8056 24.0847C14.7462 24.1966 14.7888 24.3355 14.9007 24.3949C15.0127 24.4543 15.1516 24.4117 15.2109 24.2998C15.2704 24.1878 15.2277 24.0489 15.1158 23.9896Z" fill="rgb(255,234,162)" fill-rule="nonzero" />
				<path id="Vector" d="M15.3679 25.1856C15.3005 25.1498 15.2167 25.1755 15.1809 25.2429C15.1452 25.3104 15.1708 25.3941 15.2383 25.4299C15.3057 25.4656 15.3895 25.44 15.4252 25.3725C15.461 25.3051 15.4354 25.2214 15.3679 25.1856Z" fill="rgb(255,234,162)" fill-rule="nonzero" />
				<path id="Vector" d="M17.3513 25.5677C17.1908 25.5632 17.0571 25.6896 17.0526 25.85C17.0481 26.0105 17.1745 26.1442 17.3349 26.1487C17.4954 26.1532 17.6291 26.0268 17.6336 25.8664C17.638 25.706 17.5117 25.5722 17.3513 25.5677Z" fill="rgb(255,234,162)" fill-rule="nonzero" />
				<path id="Vector" d="M30.3461 19.0169C30.2919 18.9024 30.155 18.8535 30.0405 18.9077C29.926 18.9619 29.8771 19.0988 29.9313 19.2133C29.9856 19.3278 30.1224 19.3767 30.2369 19.3225C30.3514 19.2683 30.4003 19.1314 30.3461 19.0169Z" fill="rgb(255,234,162)" fill-rule="nonzero" />
				<path id="Vector" d="M16.7321 23.5989C16.6557 23.5968 16.5921 23.657 16.5899 23.7333C16.5878 23.8097 16.6479 23.8733 16.7243 23.8755C16.8006 23.8776 16.8643 23.8174 16.8665 23.7411C16.8686 23.6647 16.8084 23.6011 16.7321 23.5989Z" fill="rgb(255,234,162)" fill-rule="nonzero" />
				<path id="Vector" d="M16.2755 24.7907C16.1599 24.817 16.0875 24.9321 16.1138 25.0478C16.1401 25.1634 16.2552 25.2358 16.3709 25.2095C16.4865 25.1831 16.5589 25.0681 16.5326 24.9524C16.5063 24.8367 16.3911 24.7644 16.2755 24.7907Z" fill="rgb(255,234,162)" fill-rule="nonzero" />
				<path id="Vector" d="M16.516 24.191C16.4247 24.2118 16.3675 24.3027 16.3883 24.394C16.4091 24.4853 16.5 24.5425 16.5912 24.5217C16.6825 24.5009 16.7397 24.41 16.7189 24.3187C16.6981 24.2274 16.6073 24.1702 16.516 24.191Z" fill="rgb(255,234,162)" fill-rule="nonzero" />
				<path id="Vector" d="M15.8266 24.5228C15.8816 24.5102 15.9161 24.4555 15.9035 24.4004C15.891 24.3453 15.8362 24.3109 15.7812 24.3234C15.7261 24.336 15.6917 24.3907 15.7042 24.4458C15.7168 24.5009 15.7716 24.5353 15.8266 24.5228Z" fill="rgb(255,234,162)" fill-rule="nonzero" />
				<path id="Vector" d="M16.0903 11.1943C16.1655 11.0525 16.1116 10.8766 15.9698 10.8013C15.828 10.7261 15.6521 10.7801 15.5769 10.9218C15.5017 11.0636 15.5557 11.2395 15.6974 11.3148C15.8392 11.3901 16.0151 11.3361 16.0903 11.1943Z" fill="rgb(255,234,162)" fill-rule="nonzero" />
				<path id="Vector" d="M29.1006 20.9826C29.1028 20.8559 29.0019 20.7514 28.8752 20.7492C28.7486 20.747 28.6441 20.848 28.6419 20.9747C28.6397 21.1013 28.7406 21.2058 28.8673 21.208C28.994 21.2102 29.0984 21.1093 29.1006 20.9826Z" fill="rgb(255,234,162)" fill-rule="nonzero" />
				<path id="Vector" d="M30.0613 20.0868C30.0627 20.0104 30.0018 19.9475 29.9254 19.9461C29.849 19.9448 29.786 20.0057 29.7847 20.082C29.7834 20.1584 29.8442 20.2214 29.9206 20.2227C29.997 20.2241 30.06 20.1632 30.0613 20.0868Z" fill="rgb(255,234,162)" fill-rule="nonzero" />
				<path id="Vector" d="M17.6731 11.5862C17.5126 11.5817 17.3789 11.7081 17.3744 11.8685C17.3698 12.029 17.4963 12.1627 17.6567 12.1672C17.8171 12.1717 17.9509 12.0453 17.9553 11.8849C17.9599 11.7245 17.8335 11.5908 17.6731 11.5862Z" fill="rgb(255,234,162)" fill-rule="nonzero" />
				<path id="Vector" d="M17.6409 11.1984C17.6445 11.0717 17.5447 10.9661 17.418 10.9626C17.2913 10.959 17.1858 11.0589 17.1822 11.1854C17.1786 11.3121 17.2785 11.4177 17.405 11.4213C17.5317 11.4248 17.6373 11.325 17.6409 11.1984Z" fill="rgb(255,234,162)" fill-rule="nonzero" />
				<path id="Vector" d="M16.7524 10.921C16.676 10.9189 16.6124 10.979 16.6102 11.0554C16.608 11.1318 16.6682 11.1954 16.7445 11.1976C16.8209 11.1997 16.8845 11.1395 16.8867 11.0632C16.8889 10.9868 16.8287 10.9231 16.7524 10.921Z" fill="rgb(255,234,162)" fill-rule="nonzero" />
				<path id="Vector" d="M30.1525 21.3631C30.0765 21.2719 29.9412 21.2596 29.85 21.3355C29.7589 21.4114 29.7466 21.5468 29.8224 21.6379C29.8983 21.7291 30.0337 21.7414 30.1248 21.6655C30.216 21.5896 30.2284 21.4542 30.1525 21.3631Z" fill="rgb(255,234,162)" fill-rule="nonzero" />
				<path id="Vector" d="M16.5362 11.5129C16.445 11.5337 16.3878 11.6246 16.4086 11.7158C16.4293 11.8071 16.5202 11.8643 16.6115 11.8435C16.7028 11.8227 16.76 11.7318 16.7392 11.6406C16.7184 11.5492 16.6275 11.4922 16.5362 11.5129Z" fill="rgb(255,234,162)" fill-rule="nonzero" />
				<path id="Vector" d="M15.8471 11.8447C15.9022 11.8321 15.9366 11.7774 15.924 11.7223C15.9115 11.6673 15.8567 11.6329 15.8017 11.6454C15.7466 11.658 15.7122 11.7127 15.7247 11.7677C15.7373 11.8228 15.792 11.8572 15.8471 11.8447Z" fill="rgb(255,234,162)" fill-rule="nonzero" />
			</g>
			<g id="Group">
				<path id="Vector" d="M24.019 17.2164C23.9338 17.3524 23.9749 17.5318 24.1109 17.617C24.2469 17.7023 24.4263 17.6612 24.5115 17.5252C24.5968 17.3892 24.5557 17.2098 24.4197 17.1246C24.2837 17.0393 24.1043 17.0804 24.019 17.2164Z" fill="rgb(255,234,162)" fill-rule="nonzero" />
				<path id="Vector" d="M24.9792 17.1685C25.0866 17.2358 25.2281 17.2033 25.2954 17.0959C25.3627 16.9886 25.3303 16.847 25.2229 16.7797C25.1155 16.7124 24.9739 16.7449 24.9066 16.8522C24.8393 16.9596 24.8718 17.1012 24.9792 17.1685Z" fill="rgb(255,234,162)" fill-rule="nonzero" />
				<path id="Vector" d="M24.8139 15.9572C24.8786 15.9977 24.964 15.9782 25.0046 15.9134C25.0451 15.8487 25.0256 15.7633 24.9609 15.7227C24.8962 15.6822 24.8107 15.7017 24.7702 15.7664C24.7296 15.8312 24.7492 15.9166 24.8139 15.9572Z" fill="rgb(255,234,162)" fill-rule="nonzero" />
				<path id="Vector" d="M22.8631 15.4332C23.0227 15.4492 23.1652 15.3328 23.1813 15.1732C23.1974 15.0135 23.081 14.871 22.9213 14.8549C22.7616 14.8388 22.6191 14.9552 22.6031 15.1149C22.5869 15.2746 22.7034 15.4171 22.8631 15.4332Z" fill="rgb(255,234,162)" fill-rule="nonzero" />
				<path id="Vector" d="M21.2069 17.3746C21.333 17.3873 21.4455 17.2954 21.4582 17.1693C21.4709 17.0433 21.379 16.9307 21.253 16.918C21.1269 16.9053 21.0144 16.9973 21.0017 17.1233C20.989 17.2494 21.0809 17.3619 21.2069 17.3746Z" fill="rgb(255,234,162)" fill-rule="nonzero" />
				<path id="Vector" d="M23.3388 17.4412C23.4148 17.4489 23.4827 17.3934 23.4903 17.3174C23.498 17.2414 23.4425 17.1736 23.3665 17.166C23.2905 17.1583 23.2227 17.2138 23.2151 17.2898C23.2074 17.3657 23.2628 17.4335 23.3388 17.4412Z" fill="rgb(255,234,162)" fill-rule="nonzero" />
				<path id="Vector" d="M23.88 16.2858C23.9972 16.2678 24.0777 16.1583 24.0598 16.0411C24.0419 15.9238 23.9323 15.8434 23.8151 15.8613C23.6979 15.8792 23.6174 15.9888 23.6353 16.106C23.6533 16.2233 23.7628 16.3038 23.88 16.2858Z" fill="rgb(255,234,162)" fill-rule="nonzero" />
				<path id="Vector" d="M23.597 16.8664C23.6895 16.8522 23.7531 16.7658 23.739 16.6732C23.7248 16.5807 23.6383 16.5171 23.5458 16.5313C23.4532 16.5454 23.3897 16.6319 23.4038 16.7244C23.4179 16.817 23.5044 16.8805 23.597 16.8664Z" fill="rgb(255,234,162)" fill-rule="nonzero" />
				<path id="Vector" d="M24.3084 16.5853C24.2527 16.5938 24.2143 16.646 24.2229 16.7018C24.2314 16.7575 24.2836 16.7959 24.3393 16.7873C24.3951 16.7788 24.4335 16.7266 24.4249 16.6709C24.4164 16.6151 24.3642 16.5767 24.3084 16.5853Z" fill="rgb(255,234,162)" fill-rule="nonzero" />
				<path id="Vector" d="M18.5835 17.6842C18.4982 17.8202 18.5393 17.9996 18.6753 18.0849C18.8113 18.1701 18.9907 18.129 19.0759 17.993C19.1611 17.857 19.12 17.6776 18.984 17.5924C18.848 17.507 18.6688 17.5482 18.5835 17.6842Z" fill="rgb(255,234,162)" fill-rule="nonzero" />
				<path id="Vector" d="M20.1669 15.2929C20.2743 15.3602 20.4159 15.3277 20.4832 15.2203C20.5505 15.1129 20.518 14.9714 20.4106 14.9041C20.3033 14.8368 20.1617 14.8693 20.0944 14.9766C20.0271 15.0839 20.0596 15.2255 20.1669 15.2929Z" fill="rgb(255,234,162)" fill-rule="nonzero" />
				<path id="Vector" d="M20.4377 16.5781C20.5024 16.6186 20.5878 16.5991 20.6283 16.5343C20.6689 16.4696 20.6493 16.3842 20.5846 16.3436C20.5198 16.3031 20.4344 16.3226 20.3939 16.3873C20.3534 16.4521 20.3729 16.5375 20.4377 16.5781Z" fill="rgb(255,234,162)" fill-rule="nonzero" />
				<path id="Vector" d="M17.033 17.1792C17.1927 17.1953 17.3352 17.0789 17.3513 16.9192C17.3673 16.7595 17.2509 16.617 17.0913 16.6009C16.9316 16.5848 16.7891 16.7012 16.773 16.8609C16.7568 17.0206 16.8733 17.1631 17.033 17.1792Z" fill="rgb(255,234,162)" fill-rule="nonzero" />
				<path id="Vector" d="M17.0371 17.5683C17.0244 17.6944 17.1163 17.8069 17.2423 17.8195C17.3684 17.8322 17.4809 17.7403 17.4935 17.6143C17.5062 17.4882 17.4143 17.3757 17.2883 17.363C17.1622 17.3503 17.0498 17.4423 17.0371 17.5683Z" fill="rgb(255,234,162)" fill-rule="nonzero" />
				<path id="Vector" d="M17.9033 17.9091C17.9793 17.9168 18.0471 17.8613 18.0547 17.7853C18.0624 17.7093 18.007 17.6415 17.931 17.6339C17.855 17.6262 17.7871 17.6817 17.7795 17.7577C17.7718 17.8337 17.8273 17.9015 17.9033 17.9091Z" fill="rgb(255,234,162)" fill-rule="nonzero" />
				<path id="Vector" d="M19.298 15.9971C19.4152 15.9791 19.4957 15.8696 19.4778 15.7524C19.4599 15.6351 19.3503 15.5547 19.2331 15.5726C19.1159 15.5905 19.0354 15.7001 19.0533 15.8173C19.0712 15.9345 19.1807 16.0151 19.298 15.9971Z" fill="rgb(255,234,162)" fill-rule="nonzero" />
				<path id="Vector" d="M18.1615 17.3342C18.254 17.32 18.3175 17.2336 18.3034 17.1411C18.2893 17.0485 18.2028 16.985 18.1102 16.9991C18.0177 17.0133 17.9542 17.0997 17.9683 17.1923C17.9824 17.2848 18.0689 17.3484 18.1615 17.3342Z" fill="rgb(255,234,162)" fill-rule="nonzero" />
				<path id="Vector" d="M18.8729 17.0531C18.8171 17.0616 18.7788 17.1138 18.7873 17.1695C18.7959 17.2254 18.848 17.2636 18.9038 17.2551C18.9596 17.2465 18.9979 17.1944 18.9894 17.1386C18.9808 17.0829 18.9287 17.0445 18.8729 17.0531Z" fill="rgb(255,234,162)" fill-rule="nonzero" />
			</g>
			<g id="Group">
				<path id="Vector" d="M7.53398 30.996C7.51123 31.1549 7.62158 31.3021 7.78049 31.3249C7.93939 31.3476 8.08661 31.2373 8.10935 31.0783C8.1321 30.9194 8.02174 30.7722 7.86284 30.7495C7.70394 30.7268 7.55672 30.8372 7.53398 30.996Z" fill="rgb(255,234,162)" fill-rule="nonzero" />
				<path id="Vector" d="M8.39225 30.5626C8.51766 30.5806 8.63389 30.4934 8.65186 30.368C8.66982 30.2426 8.58268 30.1264 8.45727 30.1084C8.33185 30.0905 8.21562 30.1776 8.19766 30.303C8.1797 30.4283 8.26684 30.5446 8.39225 30.5626Z" fill="rgb(255,234,162)" fill-rule="nonzero" />
				<path id="Vector" d="M7.74959 29.5225C7.8252 29.5333 7.89532 29.4808 7.90614 29.4051C7.91696 29.3295 7.86441 29.2594 7.78881 29.2486C7.7132 29.2378 7.64308 29.2903 7.63225 29.3659C7.62151 29.4415 7.67398 29.5117 7.74959 29.5225Z" fill="rgb(255,234,162)" fill-rule="nonzero" />
				<path id="Vector" d="M5.75398 29.8349C5.90645 29.7848 5.98951 29.6206 5.93939 29.4681C5.88927 29.3156 5.72512 29.2326 5.57257 29.2827C5.4201 29.3328 5.33704 29.4969 5.38716 29.6495C5.43728 29.8019 5.60143 29.885 5.75398 29.8349Z" fill="rgb(255,234,162)" fill-rule="nonzero" />
				<path id="Vector" d="M5.0279 32.2815C5.14829 32.242 5.21378 32.1123 5.17425 31.9919C5.13472 31.8715 5.00507 31.806 4.88468 31.8456C4.76429 31.8851 4.69879 32.0147 4.73832 32.1351C4.77785 32.2555 4.9075 32.321 5.0279 32.2815Z" fill="rgb(255,234,162)" fill-rule="nonzero" />
				<path id="Vector" d="M7.00356 31.4774C7.07611 31.4536 7.11564 31.3754 7.0918 31.3028C7.06795 31.2303 6.98975 31.1907 6.9172 31.2146C6.84465 31.2384 6.80512 31.3166 6.82897 31.3892C6.85281 31.4617 6.93101 31.5012 7.00356 31.4774Z" fill="rgb(255,234,162)" fill-rule="nonzero" />
				<path id="Vector" d="M7.0293 30.2016C7.12914 30.1377 7.15832 30.0048 7.09432 29.905C7.0304 29.8052 6.89753 29.776 6.79769 29.84C6.69785 29.9039 6.66867 30.0368 6.73267 30.1366C6.79667 30.2364 6.92946 30.2655 7.0293 30.2016Z" fill="rgb(255,234,162)" fill-rule="nonzero" />
				<path id="Vector" d="M7.00633 30.8473C7.08516 30.7968 7.10821 30.6919 7.05771 30.6131C7.0072 30.5342 6.90233 30.5112 6.82351 30.5617C6.74469 30.6122 6.72163 30.7171 6.77214 30.7959C6.82265 30.8747 6.92751 30.8977 7.00633 30.8473Z" fill="rgb(255,234,162)" fill-rule="nonzero" />
				<path id="Vector" d="M7.54223 30.3017C7.4947 30.3321 7.48082 30.3953 7.51125 30.4428C7.54168 30.4904 7.6049 30.5042 7.65243 30.4738C7.69995 30.4434 7.71384 30.3802 7.68341 30.3326C7.65305 30.2851 7.58984 30.2712 7.54223 30.3017Z" fill="rgb(255,234,162)" fill-rule="nonzero" />
				<path id="Vector" d="M2.75541 33.6288C2.73267 33.7877 2.84302 33.9349 3.00192 33.9577C3.16082 33.9804 3.30804 33.8701 3.33079 33.7112C3.35353 33.5523 3.24318 33.405 3.08428 33.3823C2.92545 33.3596 2.77824 33.4699 2.75541 33.6288Z" fill="rgb(255,234,162)" fill-rule="nonzero" />
				<path id="Vector" d="M3.23258 30.8006C3.35799 30.8186 3.47423 30.7315 3.49219 30.6061C3.51015 30.4807 3.42301 30.3644 3.2976 30.3465C3.17219 30.3285 3.05595 30.4156 3.03799 30.541C3.02003 30.6665 3.10717 30.7827 3.23258 30.8006Z" fill="rgb(255,234,162)" fill-rule="nonzero" />
				<path id="Vector" d="M4.0018 31.8652C4.07741 31.8761 4.14753 31.8235 4.15835 31.7479C4.16917 31.6723 4.11662 31.6022 4.04102 31.5914C3.96541 31.5806 3.89529 31.6331 3.88447 31.7087C3.87365 31.7843 3.92619 31.8544 4.0018 31.8652Z" fill="rgb(255,234,162)" fill-rule="nonzero" />
				<path id="Vector" d="M1.13338 33.7961C1.28585 33.7459 1.36883 33.5818 1.31879 33.4293C1.26867 33.2768 1.10452 33.1937 0.951967 33.2439C0.799496 33.294 0.716437 33.4581 0.766555 33.6107C0.816673 33.7631 0.980908 33.8462 1.13338 33.7961Z" fill="rgb(255,234,162)" fill-rule="nonzero" />
				<path id="Vector" d="M1.2952 34.1501C1.33473 34.2705 1.46438 34.336 1.58477 34.2964C1.70516 34.2569 1.77065 34.1273 1.73112 34.0069C1.69159 33.8865 1.56195 33.821 1.44156 33.8605C1.32124 33.9 1.25567 34.0297 1.2952 34.1501Z" fill="rgb(255,234,162)" fill-rule="nonzero" />
				<path id="Vector" d="M2.22523 34.1102C2.29778 34.0864 2.33731 34.0083 2.31347 33.9356C2.28963 33.8631 2.21143 33.8236 2.13888 33.8474C2.06633 33.8712 2.0268 33.9494 2.05065 34.022C2.07449 34.0945 2.15268 34.134 2.22523 34.1102Z" fill="rgb(255,234,162)" fill-rule="nonzero" />
				<path id="Vector" d="M2.72437 31.7969C2.82421 31.733 2.85339 31.6002 2.78939 31.5003C2.72547 31.4005 2.59261 31.3713 2.49276 31.4353C2.39292 31.4992 2.36374 31.6321 2.42774 31.7319C2.49166 31.8318 2.62453 31.8609 2.72437 31.7969Z" fill="rgb(255,234,162)" fill-rule="nonzero" />
				<path id="Vector" d="M2.22777 33.4799C2.30659 33.4294 2.32965 33.3246 2.27914 33.2457C2.22863 33.1669 2.12377 33.1439 2.04495 33.1943C1.96612 33.2449 1.94307 33.3496 1.99357 33.4285C2.04408 33.5074 2.14895 33.5304 2.22777 33.4799Z" fill="rgb(255,234,162)" fill-rule="nonzero" />
				<path id="Vector" d="M2.76416 32.9344C2.71663 32.9648 2.70274 33.0281 2.73318 33.0756C2.76361 33.1231 2.82682 33.137 2.87435 33.1066C2.92188 33.0761 2.93577 33.0129 2.90533 32.9654C2.8749 32.9179 2.81169 32.904 2.76416 32.9344Z" fill="rgb(255,234,162)" fill-rule="nonzero" />
			</g>
		</g>
		<g id="Group">
			<path id="Vector" d="M17.0621 17.374C18.0567 17.374 18.863 16.8059 18.863 16.1051C18.863 15.4043 18.0567 14.8362 17.0621 14.8362C16.0675 14.8362 15.2612 15.4043 15.2612 16.1051C15.2612 16.8059 16.0675 17.374 17.0621 17.374Z" fill="url(#paint_linear_137)" fill-rule="evenodd" />
			<g id="Group">
				<path id="Vector" d="M16.871 15.6261C17.0299 15.6261 17.1588 15.4972 17.1588 15.3383C17.1588 15.1794 17.0299 15.0505 16.871 15.0505C16.7121 15.0505 16.5833 15.1794 16.5833 15.3383C16.5833 15.4972 16.7121 15.6261 16.871 15.6261Z" fill="url(#paint_linear_138)" fill-rule="evenodd" />
				<path id="Vector" d="M16.337 16.3095C16.4624 16.3095 16.5641 16.2078 16.5641 16.0824C16.5641 15.9569 16.4624 15.8552 16.337 15.8552C16.2116 15.8552 16.1099 15.9569 16.1099 16.0824C16.1099 16.2078 16.2116 16.3095 16.337 16.3095Z" fill="url(#paint_linear_139)" fill-rule="evenodd" />
				<path id="Vector" d="M17.3269 16.4099C17.4025 16.4099 17.4638 16.3486 17.4638 16.273C17.4638 16.1974 17.4025 16.136 17.3269 16.136C17.2513 16.136 17.1899 16.1974 17.1899 16.273C17.1899 16.3486 17.2513 16.4099 17.3269 16.4099Z" fill="url(#paint_linear_140)" fill-rule="evenodd" />
			</g>
		</g>
		<g id="Group">
			<path id="Vector" d="M9.60384 23.8343C10.5984 23.8343 11.4047 23.2663 11.4047 22.5655C11.4047 21.8647 10.5984 21.2966 9.60384 21.2966C8.60925 21.2966 7.80298 21.8647 7.80298 22.5655C7.80298 23.2663 8.60925 23.8343 9.60384 23.8343Z" fill="url(#paint_linear_141)" fill-rule="evenodd" />
			<g id="Group">
				<path id="Vector" d="M9.41276 22.0865C9.57169 22.0865 9.70053 21.9576 9.70053 21.7987C9.70053 21.6398 9.57169 21.5109 9.41276 21.5109C9.25384 21.5109 9.125 21.6398 9.125 21.7987C9.125 21.9576 9.25384 22.0865 9.41276 22.0865Z" fill="url(#paint_linear_142)" fill-rule="evenodd" />
				<path id="Vector" d="M8.87851 22.7699C9.00395 22.7699 9.10564 22.6682 9.10564 22.5428C9.10564 22.4173 9.00395 22.3156 8.87851 22.3156C8.75306 22.3156 8.65137 22.4173 8.65137 22.5428C8.65137 22.6682 8.75306 22.7699 8.87851 22.7699Z" fill="url(#paint_linear_143)" fill-rule="evenodd" />
				<path id="Vector" d="M9.86887 22.8703C9.9445 22.8703 10.0058 22.809 10.0058 22.7334C10.0058 22.6577 9.9445 22.5964 9.86887 22.5964C9.79324 22.5964 9.73193 22.6577 9.73193 22.7334C9.73193 22.809 9.79324 22.8703 9.86887 22.8703Z" fill="url(#paint_linear_144)" fill-rule="evenodd" />
			</g>
		</g>
		<g id="Group">
			<path id="Vector" d="M18.8883 25.6919C19.8828 25.6919 20.6891 25.1238 20.6891 24.423C20.6891 23.7223 19.8828 23.1542 18.8883 23.1542C17.8937 23.1542 17.0874 23.7223 17.0874 24.423C17.0874 25.1238 17.8937 25.6919 18.8883 25.6919Z" fill="url(#paint_linear_145)" fill-rule="evenodd" />
			<g id="Group">
				<path id="Vector" d="M18.6974 23.944C18.8564 23.944 18.9852 23.8152 18.9852 23.6562C18.9852 23.4973 18.8564 23.3685 18.6974 23.3685C18.5385 23.3685 18.4097 23.4973 18.4097 23.6562C18.4097 23.8152 18.5385 23.944 18.6974 23.944Z" fill="url(#paint_linear_146)" fill-rule="evenodd" />
				<path id="Vector" d="M18.1629 24.6276C18.2884 24.6276 18.3901 24.5259 18.3901 24.4004C18.3901 24.275 18.2884 24.1733 18.1629 24.1733C18.0375 24.1733 17.9358 24.275 17.9358 24.4004C17.9358 24.5259 18.0375 24.6276 18.1629 24.6276Z" fill="url(#paint_linear_147)" fill-rule="evenodd" />
				<path id="Vector" d="M19.1531 24.7278C19.2287 24.7278 19.29 24.6665 19.29 24.5909C19.29 24.5152 19.2287 24.4539 19.1531 24.4539C19.0774 24.4539 19.0161 24.5152 19.0161 24.5909C19.0161 24.6665 19.0774 24.7278 19.1531 24.7278Z" fill="url(#paint_linear_148)" fill-rule="evenodd" />
			</g>
		</g>
		<g id="Group">
			<path id="Vector" d="M32.1693 21.4916C33.1639 21.4916 33.9701 20.9235 33.9701 20.2227C33.9701 19.5219 33.1639 18.9539 32.1693 18.9539C31.1747 18.9539 30.3684 19.5219 30.3684 20.2227C30.3684 20.9235 31.1747 21.4916 32.1693 21.4916Z" fill="url(#paint_linear_149)" fill-rule="evenodd" />
			<g id="Group">
				<path id="Vector" d="M31.9782 19.7439C32.1371 19.7439 32.266 19.615 32.266 19.4561C32.266 19.2972 32.1371 19.1683 31.9782 19.1683C31.8193 19.1683 31.6904 19.2972 31.6904 19.4561C31.6904 19.615 31.8193 19.7439 31.9782 19.7439Z" fill="url(#paint_linear_150)" fill-rule="evenodd" />
				<path id="Vector" d="M31.4439 20.4272C31.5694 20.4272 31.6711 20.3255 31.6711 20.2001C31.6711 20.0746 31.5694 19.973 31.4439 19.973C31.3185 19.973 31.2168 20.0746 31.2168 20.2001C31.2168 20.3255 31.3185 20.4272 31.4439 20.4272Z" fill="url(#paint_linear_151)" fill-rule="evenodd" />
				<path id="Vector" d="M32.4338 20.5277C32.5094 20.5277 32.5707 20.4664 32.5707 20.3908C32.5707 20.3152 32.5094 20.2538 32.4338 20.2538C32.3582 20.2538 32.2969 20.3152 32.2969 20.3908C32.2969 20.4664 32.3582 20.5277 32.4338 20.5277Z" fill="url(#paint_linear_152)" fill-rule="evenodd" />
			</g>
		</g>
		<g id="Group">
			<path id="Vector" d="M17.1588 9.82814C18.1534 9.82814 18.9596 9.26005 18.9596 8.55927C18.9596 7.8585 18.1534 7.29041 17.1588 7.29041C16.1642 7.29041 15.3579 7.8585 15.3579 8.55927C15.3579 9.26005 16.1642 9.82814 17.1588 9.82814Z" fill="url(#paint_linear_153)" fill-rule="evenodd" />
			<g id="Group">
				<path id="Vector" d="M16.9675 8.08029C17.1264 8.08029 17.2552 7.95145 17.2552 7.79252C17.2552 7.6336 17.1264 7.50476 16.9675 7.50476C16.8085 7.50476 16.6797 7.6336 16.6797 7.79252C16.6797 7.95145 16.8085 8.08029 16.9675 8.08029Z" fill="url(#paint_linear_154)" fill-rule="evenodd" />
				<path id="Vector" d="M16.4334 8.76385C16.5589 8.76385 16.6606 8.66215 16.6606 8.53671C16.6606 8.41126 16.5589 8.30957 16.4334 8.30957C16.308 8.30957 16.2063 8.41126 16.2063 8.53671C16.2063 8.66215 16.308 8.76385 16.4334 8.76385Z" fill="url(#paint_linear_155)" fill-rule="evenodd" />
				<path id="Vector" d="M17.4236 8.86415C17.4992 8.86415 17.5605 8.80284 17.5605 8.72721C17.5605 8.65158 17.4992 8.59027 17.4236 8.59027C17.3479 8.59027 17.2866 8.65158 17.2866 8.72721C17.2866 8.80284 17.3479 8.86415 17.4236 8.86415Z" fill="url(#paint_linear_156)" fill-rule="evenodd" />
			</g>
		</g>
		<g id="Group">
			<path id="Vector" d="M19.8828 10.0037C18.1521 8.69863 15.346 8.69863 13.6154 10.0037C11.8847 11.3088 11.8847 13.4248 13.6154 14.7299C15.346 16.035 18.1521 16.035 19.8828 14.7299C21.6134 13.4248 21.6134 11.3088 19.8828 10.0037ZM14.7591 13.2165C13.6602 12.4927 13.6602 11.3188 14.7591 10.595C15.858 9.87118 17.6397 9.87149 18.7386 10.5953C19.8375 11.3192 19.8379 12.4928 18.7391 13.2165C17.6401 13.9404 15.8579 13.9404 14.7591 13.2165Z" fill="url(#paint_linear_157)" fill-rule="nonzero" />
			<path id="Vector" d="M14.1423 13.9927C15.5817 15.039 17.9162 15.039 19.3556 13.9927C20.7955 12.946 20.7951 11.2494 19.3556 10.2031C17.9158 9.15642 15.5821 9.15642 14.1423 10.2031C12.7028 11.2494 12.7023 12.946 14.1423 13.9927ZM18.7389 10.5951C19.8378 11.3189 19.8378 12.4928 18.7389 13.2166C17.64 13.9404 15.8583 13.9401 14.7594 13.2163C13.6605 12.4924 13.6601 11.3189 14.7589 10.5951C15.8579 9.87133 17.64 9.87133 18.7389 10.5951Z" fill="url(#paint_linear_158)" fill-rule="nonzero" />
		</g>
		<path id="Vector" d="M2.50491 30.1745C3.15323 30.4248 3.97997 30.2393 4.35158 29.7603C4.42468 29.666 4.39229 29.5552 4.29048 29.4417C4.17793 29.3163 4.21832 29.1507 4.37283 29.0497L4.39895 29.0326C4.59856 28.9021 4.55283 28.6717 4.30993 28.5847L3.34327 28.2382C3.10036 28.1512 2.80836 28.2605 2.7755 28.4508C2.75017 28.5974 2.5795 28.711 2.36978 28.7196C2.20201 28.7264 2.07079 28.7675 2.00389 28.8538C1.63221 29.333 1.8566 29.9242 2.50491 30.1745Z" fill="url(#paint_linear_159)" fill-rule="nonzero" />
		<g id="Group">
			<path id="Vector" d="M8.9956 25.1564C7.51834 24.0424 5.12328 24.0424 3.64603 25.1564C2.16877 26.2704 2.16877 28.0765 3.64603 29.1904C5.12328 30.3044 7.51834 30.3044 8.9956 29.1904C10.4728 28.0765 10.4728 26.2704 8.9956 25.1564ZM4.62218 27.8987C3.68422 27.2809 3.68422 26.2789 4.62218 25.6611C5.56015 25.0433 7.08093 25.0435 8.01889 25.6613C8.95685 26.2791 8.95724 27.2809 8.01928 27.8987C7.0814 28.5165 5.56015 28.5165 4.62218 27.8987Z" fill="url(#paint_linear_160)" fill-rule="nonzero" />
			<path id="Vector" d="M4.09593 28.5612C5.32456 29.4543 7.31719 29.4543 8.54582 28.5612C9.77484 27.6678 9.77444 26.2196 8.54582 25.3265C7.3168 24.4332 5.32495 24.4332 4.09593 25.3265C2.86731 26.2197 2.86691 27.6678 4.09593 28.5612ZM8.01946 25.6612C8.95742 26.279 8.95742 27.2809 8.01946 27.8987C7.0815 28.5166 5.56072 28.5163 4.62276 27.8985C3.6848 27.2807 3.6844 26.279 4.62237 25.6612C5.56025 25.0434 7.0815 25.0434 8.01946 25.6612Z" fill="url(#paint_linear_161)" fill-rule="nonzero" />
		</g>
		<path id="Vector" d="M26.6465 21.1587C25.9982 20.9085 25.1714 21.094 24.7998 21.573C24.7267 21.6673 24.7591 21.778 24.8609 21.8915C24.9735 22.017 24.9331 22.1826 24.7786 22.2836L24.7525 22.3006C24.5528 22.4311 24.5986 22.6615 24.8415 22.7486L25.8081 23.095C26.051 23.1821 26.343 23.0728 26.3759 22.8825C26.4012 22.7358 26.5719 22.6223 26.7816 22.6137C26.9494 22.6069 27.0806 22.5658 27.1475 22.4795C27.5192 22.0003 27.2948 21.409 26.6465 21.1587Z" fill="url(#paint_linear_162)" fill-rule="nonzero" />
		<g id="Group">
			<path id="Vector" d="M25.4745 21.426C27.3629 21.426 28.8938 20.3473 28.8938 19.0168C28.8938 17.6862 27.3629 16.6076 25.4745 16.6076C23.5861 16.6076 22.0552 17.6862 22.0552 19.0168C22.0552 20.3473 23.5861 21.426 25.4745 21.426Z" fill="url(#paint_linear_163)" fill-rule="evenodd" />
			<g id="Group">
				<path id="Vector" d="M25.1117 18.1073C25.4134 18.1073 25.658 17.8627 25.658 17.561C25.658 17.2593 25.4134 17.0147 25.1117 17.0147C24.81 17.0147 24.5654 17.2593 24.5654 17.561C24.5654 17.8627 24.81 18.1073 25.1117 18.1073Z" fill="url(#paint_linear_164)" fill-rule="evenodd" />
				<path id="Vector" d="M24.0973 19.4051C24.3355 19.4051 24.5286 19.212 24.5286 18.9738C24.5286 18.7356 24.3355 18.5425 24.0973 18.5425C23.8591 18.5425 23.666 18.7356 23.666 18.9738C23.666 19.212 23.8591 19.4051 24.0973 19.4051Z" fill="url(#paint_linear_165)" fill-rule="evenodd" />
				<path id="Vector" d="M25.977 19.5956C26.1206 19.5956 26.237 19.4792 26.237 19.3356C26.237 19.192 26.1206 19.0756 25.977 19.0756C25.8334 19.0756 25.717 19.192 25.717 19.3356C25.717 19.4792 25.8334 19.5956 25.977 19.5956Z" fill="url(#paint_linear_166)" fill-rule="evenodd" />
			</g>
		</g>
		<g id="Group">
			<path id="Vector" d="M11.0497 27.7845C12.9381 27.7845 14.4689 26.7059 14.4689 25.3754C14.4689 24.0448 12.9381 22.9662 11.0497 22.9662C9.16124 22.9662 7.63037 24.0448 7.63037 25.3754C7.63037 26.7059 9.16124 27.7845 11.0497 27.7845Z" fill="url(#paint_linear_167)" fill-rule="evenodd" />
			<g id="Group">
				<path id="Vector" d="M10.6864 24.4659C10.9881 24.4659 11.2327 24.2213 11.2327 23.9196C11.2327 23.6179 10.9881 23.3734 10.6864 23.3734C10.3847 23.3734 10.1401 23.6179 10.1401 23.9196C10.1401 24.2213 10.3847 24.4659 10.6864 24.4659Z" fill="url(#paint_linear_168)" fill-rule="evenodd" />
				<path id="Vector" d="M9.67226 25.7637C9.91045 25.7637 10.1035 25.5706 10.1035 25.3324C10.1035 25.0942 9.91045 24.9011 9.67226 24.9011C9.43406 24.9011 9.24097 25.0942 9.24097 25.3324C9.24097 25.5706 9.43406 25.7637 9.67226 25.7637Z" fill="url(#paint_linear_169)" fill-rule="evenodd" />
				<path id="Vector" d="M11.552 25.9542C11.6956 25.9542 11.812 25.8378 11.812 25.6942C11.812 25.5506 11.6956 25.4342 11.552 25.4342C11.4084 25.4342 11.292 25.5506 11.292 25.6942C11.292 25.8378 11.4084 25.9542 11.552 25.9542Z" fill="url(#paint_linear_170)" fill-rule="evenodd" />
			</g>
		</g>
		<path id="Vector" d="M18.3342 18.0893C17.6859 17.8391 16.8592 18.0246 16.4876 18.5036C16.4145 18.5979 16.4469 18.7086 16.5487 18.8221C16.6612 18.9476 16.6208 19.1132 16.4663 19.2142L16.4402 19.2312C16.2406 19.3617 16.2863 19.5922 16.5292 19.6792L17.4959 20.0257C17.7388 20.1127 18.0308 20.0034 18.0636 19.8131C18.089 19.6664 18.2596 19.5529 18.4694 19.5443C18.6371 19.5375 18.7684 19.4964 18.8353 19.4101C19.2069 18.931 18.9825 18.3397 18.3342 18.0893Z" fill="url(#paint_linear_171)" fill-rule="nonzero" />
		<path id="Vector" d="M19.3033 25.6568C20.0975 25.5245 20.6892 25.023 20.6892 24.423C20.6892 23.7223 19.883 23.1542 18.8884 23.1542C18.2556 23.1542 17.7002 23.3846 17.3789 23.7324L19.3033 25.6568Z" fill="url(#paint_linear_172)" fill-rule="nonzero" />
		<g id="Group">
			<path id="Vector" d="M22.5703 19.4983C21.0931 18.3843 18.698 18.3843 17.2207 19.4983C15.7435 20.6123 15.7435 22.4184 17.2207 23.5324C18.698 24.6463 21.0931 24.6463 22.5703 23.5324C24.0476 22.4184 24.0476 20.6123 22.5703 19.4983ZM18.197 22.2406C17.259 21.6228 17.259 20.6208 18.197 20.003C19.1349 19.3852 20.6557 19.3855 21.5937 20.0033C22.5316 20.6211 22.532 21.6228 21.5941 22.2406C20.6561 22.8584 19.1349 22.8584 18.197 22.2406Z" fill="url(#paint_linear_173)" fill-rule="nonzero" />
			<path id="Vector" d="M17.6706 22.9031C18.8993 23.7962 20.8919 23.7962 22.1205 22.9031C23.3495 22.0097 23.3491 20.5615 22.1205 19.6684C20.8915 18.7751 18.8997 18.7751 17.6706 19.6684C16.442 20.5616 16.4416 22.0097 17.6706 22.9031ZM21.5941 20.0032C22.532 20.621 22.532 21.6229 21.5941 22.2407C20.6561 22.8585 19.1353 22.8583 18.1974 22.2405C17.2594 21.6227 17.259 20.621 18.197 20.0032C19.135 19.3853 20.6561 19.3853 21.5941 20.0032Z" fill="url(#paint_linear_174)" fill-rule="nonzero" />
		</g>
		<path id="Vector" d="M5.96818 21.8547C5.10622 21.8547 4.40747 22.3524 4.40747 22.9663C4.40747 23.5803 5.10622 24.0779 5.96818 24.0779C6.83014 24.0779 7.52888 23.5803 7.52888 22.9663C7.52888 22.3524 6.83014 21.8547 5.96818 21.8547ZM5.96818 23.4382C5.60229 23.4382 5.30575 23.227 5.30575 22.9663C5.30575 22.7058 5.60229 22.4945 5.96818 22.4945C6.33406 22.4945 6.63061 22.7057 6.63061 22.9663C6.63069 23.227 6.33406 23.4382 5.96818 23.4382Z" fill="url(#paint_linear_175)" fill-rule="nonzero" />
		<path id="Vector" d="M13.8781 19.6882C13.0161 19.6882 12.3174 20.1859 12.3174 20.7998C12.3174 21.4138 13.0161 21.9115 13.8781 21.9115C14.7401 21.9115 15.4388 21.4138 15.4388 20.7998C15.4388 20.1859 14.74 19.6882 13.8781 19.6882ZM13.8781 21.2716C13.5122 21.2716 13.2157 21.0604 13.2157 20.7998C13.2157 20.5392 13.5122 20.3279 13.8781 20.3279C14.244 20.3279 14.5405 20.5391 14.5405 20.7998C14.5405 21.0604 14.2439 21.2716 13.8781 21.2716Z" fill="url(#paint_linear_176)" fill-rule="nonzero" />
		<path id="Vector" d="M23.9518 14.0947C23.0899 14.0947 22.3911 14.5924 22.3911 15.2063C22.3911 15.8203 23.0899 16.3179 23.9518 16.3179C24.8138 16.3179 25.5125 15.8203 25.5125 15.2063C25.5125 14.5924 24.8138 14.0947 23.9518 14.0947ZM23.9518 15.6782C23.5859 15.6782 23.2894 15.467 23.2894 15.2063C23.2894 14.9457 23.5859 14.7345 23.9518 14.7345C24.3177 14.7345 24.6143 14.9457 24.6143 15.2063C24.6143 15.467 24.3177 15.6782 23.9518 15.6782Z" fill="url(#paint_linear_177)" fill-rule="nonzero" />
		<path id="Vector" d="M2.88053 30.4908C2.01857 30.4908 1.31982 30.9884 1.31982 31.6024C1.31982 32.2163 2.01857 32.714 2.88053 32.714C3.74249 32.714 4.44124 32.2163 4.44124 31.6024C4.44124 30.9884 3.74249 30.4908 2.88053 30.4908ZM2.88053 32.0741C2.51465 32.0741 2.2181 31.8629 2.2181 31.6023C2.2181 31.3418 2.51465 31.1305 2.88053 31.1305C3.24641 31.1305 3.54296 31.3417 3.54296 31.6023C3.54296 31.8629 3.24641 32.0741 2.88053 32.0741Z" fill="url(#paint_linear_178)" fill-rule="nonzero" />
		<g id="Group">
			<path id="Vector" d="M11.4125 19.4238C13.3009 19.4238 14.8318 18.3452 14.8318 17.0146C14.8318 15.6841 13.3009 14.6055 11.4125 14.6055C9.52403 14.6055 7.99316 15.6841 7.99316 17.0146C7.99316 18.3452 9.52403 19.4238 11.4125 19.4238Z" fill="url(#paint_linear_179)" fill-rule="evenodd" />
			<g id="Group">
				<path id="Vector" d="M11.0497 16.1051C11.3514 16.1051 11.596 15.8605 11.596 15.5588C11.596 15.2571 11.3514 15.0126 11.0497 15.0126C10.748 15.0126 10.5034 15.2571 10.5034 15.5588C10.5034 15.8605 10.748 16.1051 11.0497 16.1051Z" fill="url(#paint_linear_180)" fill-rule="evenodd" />
				<path id="Vector" d="M10.0353 17.403C10.2735 17.403 10.4666 17.2099 10.4666 16.9717C10.4666 16.7335 10.2735 16.5404 10.0353 16.5404C9.7971 16.5404 9.604 16.7335 9.604 16.9717C9.604 17.2099 9.7971 17.403 10.0353 17.403Z" fill="url(#paint_linear_181)" fill-rule="evenodd" />
				<path id="Vector" d="M11.915 17.5935C12.0586 17.5935 12.175 17.4771 12.175 17.3335C12.175 17.1899 12.0586 17.0735 11.915 17.0735C11.7714 17.0735 11.655 17.1899 11.655 17.3335C11.655 17.4771 11.7714 17.5935 11.915 17.5935Z" fill="url(#paint_linear_182)" fill-rule="evenodd" />
			</g>
		</g>
		<path id="Vector" d="M23.5618 10.8175C22.9135 10.5672 22.0867 10.7527 21.7151 11.2318C21.642 11.326 21.6744 11.4368 21.7762 11.5503C21.8888 11.6758 21.8484 11.8413 21.6939 11.9424L21.6677 11.9594C21.4681 12.0899 21.5139 12.3203 21.7568 12.4074L22.7234 12.7538C22.9663 12.8409 23.2583 12.7315 23.2912 12.5413C23.3165 12.3946 23.4872 12.281 23.6969 12.2725C23.8647 12.2656 23.9959 12.2246 24.0628 12.1383C24.4344 11.6591 24.2101 11.0678 23.5618 10.8175Z" fill="url(#paint_linear_183)" fill-rule="nonzero" />
		<path id="Vector" d="M16.8465 8.18236C19.78 9.29757 22.5542 10.953 26.108 13.5633C29.6617 16.1736 32.3957 20.0817 34.4241 22.6111C35.5138 23.9699 38.5139 23.7229 39.5046 22.1748C40.1662 21.141 40.1682 19.0524 39.494 18.0962C37.5048 15.2751 34.1551 11.9609 30.0175 8.92173C25.88 5.88259 21.7869 3.72997 18.6136 2.75922C17.5381 2.4302 16.3588 2.91295 15.6972 3.94675C14.7065 5.49491 15.2708 7.5833 16.8465 8.18236Z" fill="url(#paint_linear_184)" fill-rule="nonzero" />
	</g>
</svg>
