<svg width="14" height="14" viewBox="0 0 14 14" fill="none" xmlns="http://www.w3.org/2000/svg">
<path fill-rule="evenodd" clip-rule="evenodd" d="M7.83097 0.688001L9.58497 4.388L13.177 4.769C13.5489 4.80508 13.8619 5.06274 13.9688 5.42077C14.0757 5.7788 13.9552 6.16591 13.664 6.4L10.8 8.755L11.686 12.714C11.7669 13.0737 11.625 13.447 11.3255 13.6621C11.0261 13.8772 10.627 13.8926 10.312 13.701L6.99997 11.686L3.68497 13.7C3.36977 13.8912 2.97088 13.8757 2.6714 13.6608C2.37192 13.4458 2.22968 13.0728 2.30997 12.713L3.19997 8.755L0.335972 6.4C0.0468286 6.16531 -0.0720942 5.77932 0.0348352 5.42259C0.141765 5.06587 0.453404 4.80894 0.823972 4.772L4.41497 4.391L6.16897 0.688001C6.32137 0.367198 6.64481 0.162766 6.99997 0.162766C7.35513 0.162766 7.67858 0.367198 7.83097 0.688001Z" fill="#FF991F"/>
</svg>
