<svg width="24" height="24" viewBox="0 0 24 24" fill="none" xmlns="http://www.w3.org/2000/svg">
<path d="M4.57361 3.78172C4.83646 3.29983 5.34153 3 5.89045 3H18.1096C18.6585 3 19.1635 3.29983 19.4264 3.78172L22 8.5H20V19C20 20.1046 19.1046 21 18 21H14V17.5C14 16.6716 13.3284 16 12.5 16H11.5C10.6716 16 10 16.6716 10 17.5V21H6C4.89543 21 4 20.1046 4 19V8.5H2L4.57361 3.78172Z" fill="white"/>
<path d="M8.73358 9.83927L8.75 9.79891C8.92438 10.2352 9.18647 10.6361 9.52513 10.9748C10.1815 11.6311 11.0717 11.9999 12 11.9999C12.9283 11.9999 13.8185 11.6311 14.4749 10.9748C14.8135 10.6361 15.0756 10.2352 15.25 9.79892L15.2664 9.83927C15.4423 10.2639 15.7001 10.6497 16.0251 10.9748C16.3501 11.2998 16.736 11.5576 17.1606 11.7335C17.5852 11.9093 18.0404 11.9999 18.5 11.9999C18.9596 11.9999 19.4148 11.9093 19.8394 11.7335C20.264 11.5576 20.6499 11.2998 20.9749 10.9748C21.2999 10.6497 21.5577 10.2639 21.7336 9.83927C21.9095 9.41463 22 8.9595 22 8.49988H2C2 8.9595 2.09053 9.41463 2.26642 9.83927C2.44231 10.2639 2.70012 10.6497 3.02513 10.9748C3.35013 11.2998 3.73597 11.5576 4.16061 11.7335C4.58525 11.9093 5.04037 11.9999 5.5 11.9999C5.95963 11.9999 6.41475 11.9093 6.83939 11.7335C7.26403 11.5576 7.64987 11.2998 7.97487 10.9748C8.29988 10.6497 8.55769 10.2639 8.73358 9.83927Z" fill="#107EFF"/>
<path d="M10 17.5C10 16.6716 10.6716 16 11.5 16H12.5C13.3284 16 14 16.6716 14 17.5V21H10V17.5Z" fill="#107EFF"/>
</svg>
