<svg viewBox="0 0 16 16" xmlns="http://www.w3.org/2000/svg" xmlns:xlink="http://www.w3.org/1999/xlink" width="16.000000" height="16.000000" fill="none">
	<rect id="truck" width="16.000000" height="16.000000" x="0.000000" y="0.000000" fill="rgb(255,255,255)" fill-opacity="0" />
	<path id="Vector" d="M10.6667 2L10.6667 10.6667L0.666687 10.6667L0.666687 2L10.6667 2Z" stroke="rgb(13.6354,163.625,100.629)" stroke-width="1.5" />
	<path id="Vector" d="M13.3334 5.33325L15.3334 7.33325L15.3334 10.6666L10.6667 10.6666L10.6667 5.33325L13.3334 5.33325Z" fill-rule="nonzero" stroke="rgb(13.6354,163.625,100.629)" stroke-width="1.5" />
	<path id="Vector" d="M3.66667 14.0001C2.74619 14.0001 2 13.2539 2 12.3334C2 11.4129 2.74619 10.6667 3.66667 10.6667C4.58714 10.6667 5.33333 11.4129 5.33333 12.3334C5.33333 13.2539 4.58714 14.0001 3.66667 14.0001Z" stroke="rgb(13.6354,163.625,100.629)" stroke-width="1.5" />
	<path id="Vector" d="M12.3334 14.0001C11.4129 14.0001 10.6667 13.2539 10.6667 12.3334C10.6667 11.4129 11.4129 10.6667 12.3334 10.6667C13.2538 10.6667 14 11.4129 14 12.3334C14 13.2539 13.2538 14.0001 12.3334 14.0001Z" stroke="rgb(13.6354,163.625,100.629)" stroke-width="1.5" />
</svg>
